<?xml version="1.0" standalone="no"?>
<!DOCTYPE svg PUBLIC "-//W3C//DTD SVG 1.1//EN" "http://www.w3.org/Graphics/SVG/1.1/DTD/svg11.dtd" >
<!--
2013-9-30: Created.
-->
<svg>
<metadata>
Created by iconfont
</metadata>
<defs>

<font id="iconfont" horiz-adv-x="1024" >
  <font-face
    font-family="iconfont"
    font-weight="500"
    font-stretch="normal"
    units-per-em="1024"
    ascent="896"
    descent="-128"
  />
    <missing-glyph />
    
    <glyph glyph-name="information-fill" unicode="&#59195;" d="M512 896c282.304 0 512-229.76 512-512s-229.696-512-512-512S0 101.75999999999999 0 384 229.696 896 512 896z m0-448a48 48 0 0 1-48-48v-224a48 48 0 0 1 96 0v224A48 48 0 0 1 512 448z m0 192c-35.36 0-64-28.48-64-64 0-35.2 28.64-64 64-64 35.328 0 64 28.8 64 64 0 35.52-28.672 64-64 64z"  horiz-adv-x="1024" />

    
    <glyph glyph-name="warning-fill" unicode="&#59196;" d="M470.4864 808.096l-464-800A48 48 0 0 1 48.0224-64h928a48 48 0 0 1 41.536 72.096l-464 800a48 48 0 0 1-83.072 0zM512.0224 544a48 48 0 0 0 48-48v-224a48 48 0 0 0-96 0v224A48 48 0 0 0 512.0224 544z m-64-416c0 35.52 28.64 64 64 64 35.328 0 64-28.48 64-64 0-35.2-28.672-64-64-64-35.36 0-64 28.8-64 64z"  horiz-adv-x="1024" />

    
    <glyph glyph-name="selected-circle-fill" unicode="&#59197;" d="M512 896c282.752 0 512-229.12 512-512s-229.248-512-512-512S0 101.12 0 384 229.248 896 512 896z m209.92-352.32c-12.928 0.32-25.984-3.84-35.84-13.76l-222.08-222.08-126.048 126.08a48.16 48.16 0 0 1-35.84 13.76c-11.648-0.64-23.168-4.8-32.032-13.76-8.896-8.96-13.216-20.48-13.696-32-0.544-12.8 3.808-25.92 13.696-35.84l160-160c9.376-9.28 21.632-14.08 33.92-14.08s24.576 4.8 33.952 14.08l256 256c9.856 9.92 14.208 23.04 13.696 35.84a47.968 47.968 0 0 1-13.696 32 48.096 48.096 0 0 1-32.032 13.76z"  horiz-adv-x="1024" />

    
    <glyph glyph-name="close-circle-fill" unicode="&#59198;" d="M512 896c282.752 0 512-229.12 512-512s-229.248-512-512-512S0 101.12 0 384 229.248 896 512 896z m145.92-320.32c-12.928 0.32-26.016-3.84-35.872-13.76L512 451.84l-110.016 110.08a48.192 48.192 0 0 1-35.872 13.76c-11.648-0.64-23.136-4.8-32-13.76-8.896-8.96-13.216-20.48-13.696-32-0.544-13.12 3.808-25.92 13.696-35.84L444.128 384l-110.016-110.08c-9.888-9.92-14.24-22.72-13.696-35.84 0.48-11.52 4.8-23.04 13.696-32 8.864-8.96 20.352-13.12 32-13.76 12.928-0.32 25.984 3.84 35.872 13.76L512 316.15999999999997l110.048-110.08c9.856-9.92 22.944-14.08 35.872-13.76 11.616 0.64 23.104 4.8 32 13.76 8.864 8.96 13.216 20.48 13.696 32a47.36 47.36 0 0 1-13.696 35.84L579.872 384l110.048 110.08c9.856 9.92 14.208 22.72 13.696 35.84a47.968 47.968 0 0 1-13.696 32 48.032 48.032 0 0 1-32 13.76z"  horiz-adv-x="1024" />

    
    <glyph glyph-name="loading1" unicode="&#59194;" d="M513.376 896c282.784 0 512-229.216 512-512s-229.216-512-512-512a511.712 511.712 0 0 0-442.88 254.912 48 48 0 0 0 83.008 48.256A415.744 415.744 0 0 1 513.376-32c229.76 0 416 186.24 416 416s-186.24 416-416 416a48 48 0 0 0 0 96z"  horiz-adv-x="1025" />

    
    <glyph glyph-name="loading2" unicode="&#59193;" d="M512 128a48 48 0 0 0 48-48v-160a48 48 0 0 0-96 0v160A48 48 0 0 0 512 128z m193.568 16.736l80-138.56a48 48 0 0 0-83.136-48l-80 138.56a48 48 0 0 0 83.136 48zM384 162.304a48 48 0 0 0 17.568-65.6l-80-138.56a48 48 0 0 0-83.136 48l80 138.56a48 48 0 0 0 65.568 17.6z m415.264 111.264l138.56-80a48 48 0 0 0-48-83.136l-138.56 80a48 48 0 0 0 48 83.136zM290.304 256a48 48 0 0 0-17.6-65.568l-138.56-80a48 48 0 1 0-48 83.136l138.56 80a48 48 0 0 0 65.6-17.568zM976 432a48 48 0 0 0 0-96h-160a48 48 0 0 0 0 96h160z m-768 0a48 48 0 0 0 0-96h-160a48 48 0 0 0 0 96h160zM955.392 640a48 48 0 0 0-17.568-65.568l-138.56-80a48 48 0 0 0-48 83.136l138.56 80a48 48 0 0 0 65.6-17.568zM134.176 657.568l138.56-80a48 48 0 0 0-48-83.136l-138.56 80a48 48 0 1 0 48 83.136zM768 827.392a48 48 0 0 0 17.568-65.568l-80-138.56a48 48 0 0 0-83.136 48l80 138.56A48 48 0 0 0 768 827.424z m-446.432-17.568l80-138.56a48 48 0 1 0-83.136-48l-80 138.56a48 48 0 0 0 83.136 48zM512 896a48 48 0 0 0 48-48v-160a48 48 0 0 0-96 0v160A48 48 0 0 0 512 896z"  horiz-adv-x="1024" />

    
    <glyph glyph-name="code" unicode="&#59187;" d="M671.168 797.536a48 48 0 0 0 31.616-56.256l-1.248-4.48-288-736a48 48 0 0 0-92.32 25.92l1.248 4.48 288 736a48 48 0 0 0 60.704 30.336zM273.824 610.112c18.816-18.624 18.912-48.928 0.256-67.68l-158.336-159.04 158.208-157.696a47.744 47.744 0 0 0 0-67.68 48.096 48.096 0 0 0-67.904 0l-192 191.424a47.744 47.744 0 0 0-0.128 67.584l192 192.832a48.096 48.096 0 0 0 67.904 0.256z m544.256-0.256l192-192.832c18.624-18.72 18.56-48.96-0.128-67.584l-192-191.424a48.096 48.096 0 0 0-67.904 0 47.744 47.744 0 0 0 0 67.68l158.208 157.728-158.336 159.008a47.744 47.744 0 0 0 0.256 67.68 48.096 48.096 0 0 0 67.904-0.256z"  horiz-adv-x="1024" />

    
    <glyph glyph-name="mobilephone" unicode="&#59188;" d="M832 896a64 64 0 0 0 64-64v-896a64 64 0 0 0-64-64H192a64 64 0 0 0-64 64V832a64 64 0 0 0 64 64h640z m-32-768H224v-160h576v160z m0 672H224v-576h576V800zM464 96h96a48 48 0 0 0 0-96h-96a48 48 0 0 0 0 96z"  horiz-adv-x="1024" />

    
    <glyph glyph-name="qrcode" unicode="&#59189;" d="M420.576 352c32.832 0 59.424-26.592 59.424-59.424v-297.152A59.424 59.424 0 0 0 420.576-64H123.424A59.424 59.424 0 0 0 64-4.576v297.152C64 325.408 90.592 352 123.424 352h297.152z m171.424-192a48 48 0 0 0 48-48v-128a48 48 0 0 0-96 0v128a48 48 0 0 0 48 48z m160-64a48 48 0 0 0 48-48v-64a48 48 0 0 0-96 0v64a48 48 0 0 0 48 48z m160 64a48 48 0 0 0 48-48v-128a48 48 0 0 0-96 0v128a48 48 0 0 0 48 48zM384 256H160v-224h224v224z m-64-64v-96H224v96h96z m432 160a48 48 0 0 0 48-48v-96a48 48 0 0 0-96 0v96a48 48 0 0 0 48 48z m-160 0a48 48 0 0 0 48-48v-32a48 48 0 0 0-96 0v32a48 48 0 0 0 48 48z m320 0a48 48 0 0 0 48-48v-32a48 48 0 0 0-96 0v32a48 48 0 0 0 48 48zM420.576 832C453.408 832 480 805.408 480 772.576v-297.152A59.424 59.424 0 0 0 420.576 416H123.424A59.424 59.424 0 0 0 64 475.424V772.576C64 805.408 90.592 832 123.424 832h297.152z m480 0C933.408 832 960 805.408 960 772.576v-297.152A59.424 59.424 0 0 0 900.576 416h-297.152A59.424 59.424 0 0 0 544 475.424V772.576C544 805.408 570.592 832 603.424 832h297.152zM384 736H160v-224h224V736z m480 0h-224v-224h224V736zM320 672v-96H224V672h96z m480 0v-96h-96V672h96z"  horiz-adv-x="1024" />

    
    <glyph glyph-name="copy" unicode="&#59190;" d="M672 896l256-256v-544a64 64 0 0 0-64-64h-96v-96a64 64 0 0 0-64-64H160a64 64 0 0 0-64 64V672a64 64 0 0 0 64 64h95.968L256 832A64 64 0 0 0 315.2 895.84L320 896h352zM256 640H192v-672h480v64H320c-34.24 0-64 29.632-64 64V640z m384 160h-288v-672h480V608h-192V800z"  horiz-adv-x="1024" />

    
    <glyph glyph-name="computer" unicode="&#59191;" d="M272-64a48 48 0 0 0 0 96H448v64H64a64 64 0 0 0-64 64V768a64 64 0 0 0 64 64h896a64 64 0 0 0 64-64v-608a64 64 0 0 0-64-64H576v-64h176a48 48 0 0 0 0-96h-480zM928 736H96v-544h832V736z"  horiz-adv-x="1024" />

    
    <glyph glyph-name="verificationcode" unicode="&#59192;" d="M960 768a64 64 0 0 0 64-64v-640a64 64 0 0 0-64-64H64a64 64 0 0 0-64 64V704a64 64 0 0 0 64 64h896z m-32-96H96v-576h832V672zM288 544a32 32 0 0 0 31.776-28.256L320 512v-256a32 32 0 0 0-63.776-3.744L256 256l-0.032 202.24-43.968-35.2a32 32 0 0 0-42.272 1.984l-2.72 2.976a32 32 0 0 0 2.016 42.272l2.976 2.72 80 64a32 32 0 0 0 15.68 6.72L272 544H288z m208 0c73.696 0 112-38.336 112-96 0-24.128-11.84-47.776-32.416-72.48-15.328-18.4-35.52-37.28-59.584-56.512-9.152-7.328-18.592-14.464-28.16-21.44L474.24 288h101.76a32 32 0 0 0 31.776-28.256L608 256a32 32 0 0 0-28.256-31.776L576 224h-160a32 32 0 0 0-31.776 28.256L384 256v32a32 32 0 0 0 15.552 27.424l11.296 7.04 12.416 8.16a760.32 760.32 0 0 1 52.768 38.368c20.96 16.768 38.208 32.896 50.4 47.488 11.904 14.304 17.6 25.664 17.6 31.52 0 22.336-9.696 32-48 32-27.84 0-41.824-11.2-48.96-39.776a32 32 0 0 0-62.08 15.552C399.136 512.512 438.464 544 496 544z m251.744-191.776c-36.992 3.968-36.992 59.584 0 63.552L752 416l2.976 0.096c6.528 0.384 16.128 2.016 25.152 5.6 13.792 5.536 19.872 12.8 19.872 26.304 0 22.336-9.664 32-48 32-27.84 0-41.792-7.264-48.32-22.688l-1.312-3.424a32 32 0 1 0-60.736 20.224C657.056 520.32 696.512 544 752 544c73.664 0 112-38.336 112-96 0-25.984-8.96-46.816-24.16-62.4l-1.696-1.6 1.696-1.6c13.824-14.176 22.496-32.672 23.936-55.456L864 320c0-53.12-49.984-96-112-96-43.328 0-79.68 21.76-106.624 62.24a32 32 0 1 0 53.248 35.52c15.68-23.552 32.704-33.76 53.376-33.76 28.672 0 48 16.576 48 32 0 13.472-6.08 20.768-19.872 26.304a85.056 85.056 0 0 1-25.152 5.6L752 352l-4.256 0.224z"  horiz-adv-x="1024" />

    
    <glyph glyph-name="unlocked-fill" unicode="&#59186;" d="M512 896a256 256 0 0 0 256-256 48 48 0 0 0-96 0 160 160 0 0 1-320 0l-0.032-127.968L832 512a64 64 0 0 0 64-64v-512a64 64 0 0 0-64-64H192a64 64 0 0 0-64 64V448a64 64 0 0 0 64 64l63.968 0.032L256 640A256 256 0 0 0 504 895.872z"  horiz-adv-x="1024" />

    
    <glyph glyph-name="lightning" unicode="&#59185;" d="M432-128c-3.2 0-9.6 0-12.8 3.2-19.2 6.4-35.2 25.6-35.2 44.8V256H176c-16 0-35.2 9.6-41.6 25.6-9.6 16-6.4 35.2 3.2 48l352 544c12.8 19.2 35.2 25.6 54.4 19.2 19.2-6.4 32-22.4 32-44.8V512h208c16 0 35.2-9.6 41.6-25.6 9.6-16 6.4-35.2-3.2-48l-352-544c-6.4-16-22.4-22.4-38.4-22.4zM265.6 352h166.4c25.6 0 48-22.4 48-48v-220.8L694.4 416h-166.4c-25.6 0-48 22.4-48 48V684.8L265.6 352z"  horiz-adv-x="1024" />

    
    <glyph glyph-name="left" unicode="&#59171;" d="M759.04-14.20799999999997c0-27.52-22.464-49.792-50.304-49.792a50.56 50.56 0 0 0-35.52 14.56L270.72 348.79999999999995A49.664 49.664 0 0 0 256 384c0 13.76 5.696 26.176 14.752 35.2L673.184 817.376A50.464 50.464 0 0 0 708.736 832c27.84 0 50.304-22.304 50.304-49.792 0-13.728-5.696-26.176-14.752-35.2L373.376 384l370.88-363.04c9.088-8.992 14.784-21.44 14.784-35.2z"  horiz-adv-x="1024" />

    
    <glyph glyph-name="up-circle" unicode="&#59087;" d="M512 896c281.6 0 512-230.4 512-512s-230.4-512-512-512-512 230.4-512 512 230.4 512 512 512z m0-928c230.4 0 416 185.6 416 416s-185.6 416-416 416-416-185.6-416-416 185.6-416 416-416z m211.2 368c6.4-9.6 12.8-19.2 12.8-32 0-25.6-22.4-48-48-48-12.8 0-25.6 6.4-35.2 16l-140.8 153.6-140.8-153.6c-9.6-9.6-22.4-16-35.2-16-25.6 0-48 22.4-48 48 0 12.8 6.4 22.4 12.8 32l176 192c9.6 9.6 22.4 16 35.2 16s25.6-6.4 35.2-16l176-192z"  horiz-adv-x="1024" />

    
    <glyph glyph-name="up" unicode="&#59088;" d="M547.2 624l400-406.4c6.4-9.6 12.8-19.2 12.8-32 0-25.6-22.4-48-48-48-12.8 0-25.6 6.4-35.2 16l-364.8 368-364.8-368c-9.6-9.6-22.4-16-35.2-16-25.6 0-48 22.4-48 48 0 12.8 6.4 22.4 12.8 32l400 406.4c9.6 9.6 22.4 16 35.2 16s25.6-6.4 35.2-16z"  horiz-adv-x="1024" />

    
    <glyph glyph-name="up-square" unicode="&#59103;" d="M128 832c-38.4 0-64-32-64-64v-768c0-32 25.6-64 64-64h768c38.4 0 64 32 64 64v768c0 32-25.6 64-64 64h-768z m736-800h-704v704h704v-704z m-140.8 304c6.4-9.6 12.8-19.2 12.8-32 0-25.6-22.4-48-48-48-12.8 0-25.6 6.4-35.2 16l-140.8 153.6-140.8-153.6c-9.6-9.6-22.4-16-35.2-16-25.6 0-48 22.4-48 48 0 12.8 6.4 22.4 12.8 32l176 192c9.6 9.6 22.4 16 35.2 16s25.6-6.4 35.2-16l176-192z"  horiz-adv-x="1024" />

    
    <glyph glyph-name="down" unicode="&#59125;" d="M547.2 153.60000000000002c-9.6-9.6-22.4-16-35.2-16s-25.6 6.4-35.2 16l-400 406.4c-6.4 9.6-12.8 19.2-12.8 32 0 25.6 22.4 48 48 48 12.8 0 25.6-6.4 35.2-16L512 256l364.8 368c9.6 9.6 22.4 16 35.2 16 25.6 0 48-22.4 48-48 0-12.8-6.4-22.4-12.8-32l-400-406.4z"  horiz-adv-x="1024" />

    
    <glyph glyph-name="down-circle" unicode="&#59135;" d="M512-128c-281.6 0-512 230.4-512 512s230.4 512 512 512 512-230.4 512-512-230.4-512-512-512z m0 928c-230.4 0-416-185.6-416-416s185.6-416 416-416 416 185.6 416 416-185.6 416-416 416z m211.2-368l-176-192c-9.6-9.6-22.4-16-35.2-16s-25.6 6.4-35.2 16l-176 192c-6.4 9.6-12.8 19.2-12.8 32 0 25.6 22.4 48 48 48 12.8 0 25.6-6.4 35.2-16l140.8-153.6 140.8 153.6c9.6 9.6 22.4 16 35.2 16 25.6 0 48-22.4 48-48 0-12.8-6.4-22.4-12.8-32z"  horiz-adv-x="1024" />

    
    <glyph glyph-name="down-square" unicode="&#59149;" d="M128 832c-38.4 0-64-32-64-64v-768c0-32 25.6-64 64-64h768c38.4 0 64 32 64 64v768c0 32-25.6 64-64 64h-768z m736-800h-704v704h704v-704z m-140.8 400l-176-192c-9.6-9.6-22.4-16-35.2-16s-25.6 6.4-35.2 16l-176 192c-6.4 9.6-12.8 19.2-12.8 32 0 25.6 22.4 48 48 48 12.8 0 25.6-6.4 35.2-16l140.8-153.6 140.8 153.6c9.6 9.6 22.4 16 35.2 16 25.6 0 48-22.4 48-48 0-12.8-6.4-22.4-12.8-32z"  horiz-adv-x="1024" />

    
    <glyph glyph-name="right" unicode="&#59157;" d="M742.4 419.2c9.6-9.6 16-22.4 16-35.2s-6.4-25.6-16-35.2l-406.4-400c-9.6-6.4-19.2-12.8-32-12.8-25.6 0-48 22.4-48 48 0 12.8 6.4 25.6 16 35.2L640 384l-368 364.8c-9.6 9.6-16 22.4-16 35.2 0 25.6 22.4 48 48 48 12.8 0 22.4-6.4 32-12.8l406.4-400z"  horiz-adv-x="1024" />

    
    <glyph glyph-name="next" unicode="&#59162;" d="M944 348.79999999999995l-406.4-400c-9.6-6.4-19.2-12.8-32-12.8-25.6 0-48 22.4-48 48 0 12.8 6.4 25.6 16 35.2l368 364.8-368 364.8c-9.6 9.6-16 22.4-16 35.2 0 25.6 22.4 48 48 48 12.8 0 22.4-6.4 32-12.8l406.4-400c9.6-9.6 16-22.4 16-35.2s-6.4-25.6-16-35.2z m-320 0l-406.4-400c-9.6-6.4-19.2-12.8-32-12.8-25.6 0-48 22.4-48 48 0 12.8 6.4 25.6 16 35.2l368 364.8-368 364.8c-9.6 9.6-16 22.4-16 35.2 0 25.6 22.4 48 48 48 12.8 0 22.4-6.4 32-12.8l406.4-400c9.6-9.6 16-22.4 16-35.2s-6.4-25.6-16-35.2z"  horiz-adv-x="1024" />

    
    <glyph glyph-name="right-square" unicode="&#59164;" d="M128 832c-38.4 0-64-32-64-64v-768c0-32 25.6-64 64-64h768c38.4 0 64 32 64 64v768c0 32-25.6 64-64 64h-768z m736-800h-704v704h704v-704z m-432 128c-25.6 0-48 22.4-48 48 0 12.8 6.4 25.6 16 35.2l153.6 140.8-153.6 140.8c-9.6 9.6-16 22.4-16 35.2 0 25.6 22.4 48 48 48 12.8 0 22.4-3.2 32-12.8l192-176c9.6-9.6 16-22.4 16-35.2s-6.4-25.6-16-35.2l-192-176c-9.6-9.6-19.2-12.8-32-12.8z"  horiz-adv-x="1024" />

    
    <glyph glyph-name="right-circle" unicode="&#59166;" d="M512-128c-281.6 0-512 230.4-512 512s230.4 512 512 512 512-230.4 512-512-230.4-512-512-512z m0 928c-230.4 0-416-185.6-416-416s185.6-416 416-416 416 185.6 416 416-185.6 416-416 416z m-80-640c-25.6 0-48 22.4-48 48 0 12.8 6.4 25.6 16 35.2l153.6 140.8-153.6 140.8c-9.6 9.6-16 22.4-16 35.2 0 25.6 22.4 48 48 48 12.8 0 22.4-3.2 32-12.8l192-176c9.6-9.6 16-22.4 16-35.2s-6.4-25.6-16-35.2l-192-176c-9.6-9.6-19.2-12.8-32-12.8z"  horiz-adv-x="1024" />

    
    <glyph glyph-name="last" unicode="&#59167;" d="M688 419.2c9.6-9.6 16-22.4 16-35.2s-6.4-25.6-16-35.2l-406.4-400c-9.6-6.4-19.2-12.8-32-12.8-25.6 0-48 22.4-48 48 0 12.8 6.4 25.6 16 35.2l368 364.8-368 364.8c-9.6 9.6-16 22.4-16 35.2 0 25.6 22.4 48 48 48 12.8 0 22.4-6.4 32-12.8l406.4-400z m96 412.8c25.6 0 48-22.4 48-48v-800c0-25.6-22.4-48-48-48s-48 22.4-48 48v800c0 25.6 22.4 48 48 48z"  horiz-adv-x="1024" />

    
    <glyph glyph-name="left-circle" unicode="&#59170;" d="M512-128c-281.6 0-512 230.4-512 512s230.4 512 512 512 512-230.4 512-512-230.4-512-512-512z m0 928c-230.4 0-416-185.6-416-416s185.6-416 416-416 416 185.6 416 416-185.6 416-416 416z m80-640c-12.8 0-22.4 3.2-32 12.8l-192 176c-9.6 9.6-16 22.4-16 35.2s6.4 25.6 16 35.2l192 176c9.6 6.4 19.2 12.8 32 12.8 25.6 0 48-22.4 48-48 0-12.8-6.4-25.6-16-35.2l-153.6-140.8 153.6-140.8c9.6-9.6 16-22.4 16-35.2 0-25.6-22.4-48-48-48z"  horiz-adv-x="1024" />

    
    <glyph glyph-name="left-square" unicode="&#59178;" d="M128 832c-38.4 0-64-32-64-64v-768c0-32 25.6-64 64-64h768c38.4 0 64 32 64 64v768c0 32-25.6 64-64 64h-768z m736-800h-704v704h704v-704z m-304 140.8l-192 176c-9.6 9.6-16 22.4-16 35.2s6.4 25.6 16 35.2l192 176c9.6 6.4 19.2 12.8 32 12.8 25.6 0 48-22.4 48-48 0-12.8-6.4-25.6-16-35.2l-153.6-140.8 153.6-140.8c9.6-9.6 16-22.4 16-35.2 0-25.6-22.4-48-48-48-12.8 0-22.4 3.2-32 12.8z"  horiz-adv-x="1024" />

    
    <glyph glyph-name="previous" unicode="&#59180;" d="M518.4 832c25.6 0 48-22.4 48-48 0-12.8-6.4-25.6-16-35.2l-368-364.8 368-364.8c9.6-9.6 16-22.4 16-35.2 0-25.6-22.4-48-48-48-12.8 0-22.4 6.4-32 12.8l-406.4 400c-9.6 9.6-16 22.4-16 35.2s6.4 25.6 16 35.2l406.4 400c9.6 6.4 19.2 12.8 32 12.8z m320 0c25.6 0 48-22.4 48-48 0-12.8-6.4-25.6-16-35.2l-368-364.8 368-364.8c9.6-9.6 16-22.4 16-35.2 0-25.6-22.4-48-48-48-12.8 0-22.4 6.4-32 12.8l-406.4 400c-9.6 9.6-16 22.4-16 35.2s6.4 25.6 16 35.2l406.4 400c9.6 6.4 19.2 12.8 32 12.8z"  horiz-adv-x="1024" />

    
    <glyph glyph-name="first" unicode="&#59181;" d="M774.4 832c25.6 0 48-22.4 48-48 0-12.8-6.4-25.6-16-35.2l-368-364.8 368-364.8c9.6-9.6 16-22.4 16-35.2 0-25.6-22.4-48-48-48-12.8 0-22.4 6.4-32 12.8l-406.4 400c-9.6 9.6-16 22.4-16 35.2s6.4 25.6 16 35.2l406.4 400c9.6 6.4 19.2 12.8 32 12.8z m-534.4 0c25.6 0 48-22.4 48-48v-800c0-25.6-22.4-48-48-48s-48 22.4-48 48v800c0 25.6 22.4 48 48 48z"  horiz-adv-x="1024" />

    
    <glyph glyph-name="title" unicode="&#59052;" d="M912 96a48 48 0 0 0 0-96h-800a48 48 0 0 0 0 96h800z m0 224a48 48 0 0 0 0-96h-224a48 48 0 0 0 0 96h224z m-576 0a48 48 0 0 0 0-96h-224a48 48 0 0 0 0 96h224z m320 448a48 48 0 0 0 0-96h-96v-304a48 48 0 0 0-96 0V672h-96a48 48 0 0 0 0 96h288z m256-224a48 48 0 0 0 0-96h-160a48 48 0 0 0 0 96h160z m-640 0a48 48 0 0 0 0-96h-160a48 48 0 0 0 0 96h160z m640 224a48 48 0 0 0 0-96h-96a48 48 0 0 0 0 96h96z m-704 0a48 48 0 0 0 0-96h-96a48 48 0 0 0 0 96h96z"  horiz-adv-x="1024" />

    
    <glyph glyph-name="location" unicode="&#59053;" d="M834.707697 303.83057599999995l-255.47826-395.152934a79.932953 79.932953 0 0 0-134.458874 0L189.292303 303.83057599999995A382.513417 382.513417 0 0 0 128.014639 512.014639C128.014639 724.038556 299.944085 896 512 896s383.985361-171.961444 383.985361-383.985361c0-76.701076-22.527141-148.18635-61.277664-208.184063zM512 800.00366c-158.809945 0-287.98902-129.179075-287.98902-287.989021 0-55.61388 15.871395-109.595822 45.918249-156.090049L512-18.52513399999998l242.070771 374.481723A286.709069 286.709069 0 0 1 799.98902 512.014639c0 158.809945-129.211074 287.98902-287.98902 287.989021z m0-447.982921a159.9939 159.9939 0 0 0-159.9939 159.9939 159.9939 159.9939 0 0 0 159.9939 159.993901 159.9939 159.9939 0 0 0 159.9939-159.993901 159.9939 159.9939 0 0 0-159.9939-159.9939z m0 223.991461c-35.294654 0-63.99756-28.702906-63.99756-63.997561 0-35.262656 28.702906-63.99756 63.99756-63.99756s63.99756 28.734904 63.99756 63.99756c0 35.294654-28.702906 63.99756-63.99756 63.997561z"  horiz-adv-x="1024" />

    
    <glyph glyph-name="attachment" unicode="&#59054;" d="M920.224 371.808L573.6 23.168000000000006c-120.064-120.768-318.88-115.04-444.096 10.88-125.216 125.984-130.88 325.92-10.816 446.72L454.464 818.432a45.76 45.76 0 0 0 64.96 0 46.4 46.4 0 0 0 0-65.376L183.68 415.36c-83.296-83.808-79.296-225.28 10.848-315.936 90.144-90.656 230.784-94.688 314.112-10.88L855.232 437.12a154.688 154.688 0 0 1 0 217.92 152.544 152.544 0 0 1-216.64 0l-303.296-305.056a61.888 61.888 0 0 1 0-87.168c23.936-24.064 62.72-24.064 86.656 0l292.48 294.144a45.76 45.76 0 0 0 64.96 0 46.4 46.4 0 0 0 0-65.344l-292.448-294.176a152.544 152.544 0 0 0-216.64 0 154.688 154.688 0 0 0 0 217.92l303.296 305.024a244.096 244.096 0 0 0 346.624 0c95.68-96.256 95.68-252.352 0-348.608z"  horiz-adv-x="1024" />

    
    <glyph glyph-name="search" unicode="&#59055;" d="M383.99592 896c212.061747 0 383.99592-171.934173 383.99592-383.99592 0-88.703058-30.367677-170.174192-80.92714-235.165501l322.876569-322.87657c9.3759-9.3759 14.047851-21.63177 14.047851-33.951639 0-12.287869-4.67195-24.543739-14.047851-33.91964a47.871491 47.871491 0 0 0-67.871278 0L619.193421 208.93529999999998A381.723944 381.723944 0 0 0 383.99592 128.00815999999998C171.934173 128.00815999999998 0 299.94233299999996 0 512.0040799999999S171.934173 896 383.99592 896z m0-671.99286c158.814313 0 287.99694 129.182627 287.99694 287.99694s-129.182627 287.99694-287.99694 287.99694-287.99694-129.182627-287.99694-287.99694 129.182627-287.99694 287.99694-287.99694z"  horiz-adv-x="1024" />

    
    <glyph glyph-name="waiting" unicode="&#59056;" d="M0 384C0 666.24 229.696 896 512 896s512-229.76 512-512-229.696-512-512-512S0 101.75999999999999 0 384z m96 0c0-229.44 186.592-416 416-416 229.376 0 416 186.56 416 416S741.376 800 512 800C282.592 800 96 613.44 96 384z m448 272a48 48 0 0 1-96 0V352c0-16.416 8.384-31.68 22.24-40.48l176-112a48 48 0 1 1 51.52 80.96L544 378.336V656z"  horiz-adv-x="1024" />

    
    <glyph glyph-name="map" unicode="&#59057;" d="M760.256 832L512 707.8720000000001 263.744 832 0 707.8720000000001v-744.736l263.744 124.16L512-36.89599999999996l248.256 124.16L1024-36.89599999999996V707.8720000000001L760.256 832zM310.304 704.672l155.136-77.6V90.55999999999995l-155.136 77.568V704.672z m248.256-77.6l155.136 77.568v-536.544l-155.136-77.568V627.072zM93.088 648.8L217.216 707.2v-538.976l-124.128-58.4V648.8z m837.824-538.944l-124.128 58.4V707.232l124.128-58.432v-538.944z"  horiz-adv-x="1024" />

    
    <glyph glyph-name="close" unicode="&#59058;" d="M881.92 753.92a48 48 0 0 0 0-67.84L579.904 384l302.08-302.08a48 48 0 0 0-67.904-67.84L512 316.096l-302.08-302.08a48 48 0 0 0-67.84 67.904L444.096 384l-302.08 302.08a48 48 0 1 0 67.904 67.84L512 451.904l302.08 302.08a48 48 0 0 0 67.84 0z"  horiz-adv-x="1024" />

    
    <glyph glyph-name="close-square" unicode="&#59059;" d="M128 832C89.44 832 64 800 64 768v-768c0-32 25.248-64 64-64h768c38.912 0 64 32 64 64V768c0 32-25.92 64-64 64H128z m736-800H160V736h704v-704z m-160.384 206.08c-0.48-11.52-4.832-23.04-13.696-32-8.896-8.96-20.384-13.12-32-13.76-12.928-0.32-26.016 3.84-35.872 13.76L512 316.15999999999997l-110.016-110.08c-9.888-9.92-22.944-14.08-35.872-13.76a47.904 47.904 0 0 0-32 13.76 47.808 47.808 0 0 0-13.696 32c-0.544 13.12 3.808 25.92 13.696 35.84L444.128 384l-110.016 110.08a47.104 47.104 0 0 0-13.696 35.84c0.48 11.52 4.8 23.04 13.696 32 8.864 8.96 20.352 13.12 32 13.76 12.928 0.32 25.984-3.84 35.872-13.76L512 451.84l110.048 110.08c9.856 9.92 22.944 14.08 35.872 13.76 11.616-0.64 23.104-4.8 32-13.76 8.864-8.96 13.216-20.48 13.696-32 0.512-13.12-3.84-25.92-13.696-35.84L579.872 384l110.048-110.08c9.856-9.92 14.208-22.72 13.696-35.84z"  horiz-adv-x="1024" />

    
    <glyph glyph-name="export" unicode="&#59060;" d="M160-128c-35.296 0-64 28.8-64 64V512c0 35.2 28.704 64 64 64h176c26.528 0 48-21.44 48-48s-21.472-48-48-48H192v-512h640V480h-144a48 48 0 1 0 0 96H864c35.296 0 64-28.8 64-64v-576c0-35.2-28.704-64-64-64H160zM672 640a48 48 0 0 0-33.92 14.08L560 732.16V208a48 48 0 1 0-96 0V732.16l-78.048-78.08A48 48 0 1 0 318.08 721.92l160 160a48 48 0 0 0 67.872 0l160-160A48 48 0 0 0 672 640z"  horiz-adv-x="1024" />

    
    <glyph glyph-name="notice" unicode="&#59061;" d="M1024 384.224a95.68 95.68 0 0 1-66.272 90.816A2077.888 2077.888 0 0 1 918.048 800a40 40 0 0 1-71.264 15.936C746.912 682.112 576 608.2239999999999 416 608.2239999999999H224a224 224 0 1 1 0-448 298.816 298.816 0 0 1 93.6-217.888 22.368 22.368 0 0 1 32.864 2.208l52.448 65.056a22.336 22.336 0 0 1-1.472 29.792A171.456 171.456 0 0 0 352 160.22400000000005h64c160 0 330.912-73.888 430.784-207.712a40 40 0 0 1 71.264 15.936 2077.888 2077.888 0 0 1 39.68 324.96A95.68 95.68 0 0 1 1024 384.224z m-800-128c-70.56 0-128 57.44-128 128 0 70.592 57.44 128 128 128h128v-256H224z m619.168-159.328C736.96 190.24 594.976 247.36 448 254.75199999999995v258.944c146.976 7.392 288.96 64.544 395.168 157.856a1969.472 1969.472 0 0 0 0-574.656z"  horiz-adv-x="1024" />

    
    <glyph glyph-name="add-square" unicode="&#59062;" d="M128 832C89.44 832 64 800 64 768v-768c0-32 25.248-64 64-64h768c38.912 0 64 32 64 64V768c0 32-25.92 64-64 64H128z m736-800H160V736h704v-704zM512 608a48 48 0 0 0 48-48v-128h128a48 48 0 0 0 0-96h-128v-128a48 48 0 0 0-96 0v128h-128a48 48 0 0 0 0 96h128v128A48 48 0 0 0 512 608z"  horiz-adv-x="1024" />

    
    <glyph glyph-name="more" unicode="&#59063;" d="M160 480a96 96 0 1 0 0-192 96 96 0 0 0 0 192z m704 0a96 96 0 1 0 0-192 96 96 0 0 0 0 192z m-352 0a96 96 0 1 0 0-192 96 96 0 0 0 0 192z"  horiz-adv-x="1024" />

    
    <glyph glyph-name="chart-diagram" unicode="&#59064;" d="M512 896a128 128 0 0 0 32-251.968v-102.688a192.064 192.064 0 0 0 148-256.288l88.96-51.328a128.064 128.064 0 0 0 202.144-153.728 128 128 0 0 0-234.208 98.24l-88.96 51.36A191.616 191.616 0 0 0 512 160a191.616 191.616 0 0 0-147.936 69.6l-88.96-51.328a128.064 128.064 0 0 0-234.24-98.272 128 128 0 0 0 202.208 153.728l88.928 51.328a192.064 192.064 0 0 0 147.968 256.288v102.72A128.064 128.064 0 0 0 512 896z m304.832-720a64 64 0 1 1 110.848-64 64 64 0 0 1-110.848 64z m-697.088 23.424a64 64 0 1 1 64-110.848 64 64 0 0 1-64 110.848zM512 448a96 96 0 1 1 0-192 96 96 0 0 1 0 192z m0 384a64 64 0 1 1 0-128 64 64 0 0 1 0 128z m198.592-789.888a48 48 0 1 0 51.84-80.768A461.984 461.984 0 0 0 512-112c-89.088 0-174.592 25.216-248.256 71.936a48 48 0 1 0 51.424 81.056A366.016 366.016 0 0 1 512-16c71.456 0 139.808 20.352 198.592 58.112zM726.4 763.5840000000001A463.904 463.904 0 0 0 976 352a48 48 0 0 0-96 0c0 138.624-77.28 263.456-197.984 326.464a48 48 0 0 0 44.416 85.12z m-362.656-19.808a48 48 0 0 0-20.576-64.672A367.904 367.904 0 0 1 144 352a48 48 0 0 0-96 0c0 175.36 98.144 333.248 251.072 412.352a48 48 0 0 0 64.704-20.576z"  horiz-adv-x="1024" />

    
    <glyph glyph-name="bold" unicode="&#59065;" d="M160 768a64 64 0 0 0 64 64h384a256 256 0 0 0 169.312-448A256 256 0 0 0 608-64H224a64 64 0 0 0-64 64V768z m448-448H288v-256h320a128 128 0 1 1 0 256z m0 384H288v-256h320a128 128 0 1 1 0 256z"  horiz-adv-x="1024" />

    
    <glyph glyph-name="add-circle" unicode="&#59066;" d="M512-128C229.216-128 0 101.12 0 384S229.216 896 512 896s512-229.12 512-512-229.216-512-512-512z m0 928C282.624 800 96 613.44 96 384s186.624-416 416-416 416 186.56 416 416S741.376 800 512 800z m0-192a48 48 0 0 0 48-48v-128h128a48 48 0 0 0 0-96h-128v-128a48 48 0 0 0-96 0v128h-128a48 48 0 0 0 0 96h128v128A48 48 0 0 0 512 608z"  horiz-adv-x="1024" />

    
    <glyph glyph-name="reduce-small" unicode="&#59067;" d="M736 384a48 48 0 0 0-48-48h-352a48 48 0 0 0 0 96h352A48 48 0 0 0 736 384z"  horiz-adv-x="1024" />

    
    <glyph glyph-name="reduce-normal" unicode="&#59068;" d="M896 384a48 48 0 0 0-48-48h-672a48 48 0 0 0 0 96h672A48 48 0 0 0 896 384z"  horiz-adv-x="1024" />

    
    <glyph glyph-name="reduce-circle" unicode="&#59069;" d="M512-128C229.216-128 0 101.12 0 384S229.216 896 512 896s512-229.12 512-512-229.216-512-512-512z m0 928C282.624 800 96 613.44 96 384s186.624-416 416-416 416 186.56 416 416S741.376 800 512 800z m224-416a48 48 0 0 0-48-48h-352a48 48 0 0 0 0 96h352A48 48 0 0 0 736 384z"  horiz-adv-x="1024" />

    
    <glyph glyph-name="node" unicode="&#59070;" d="M896.096 192h32.064c35.296 0 63.936-28.672 63.936-63.904v-160.192A63.936 63.936 0 0 0 928.16-96H768a63.936 63.936 0 0 0-63.904 63.904v160.192c0 35.296 28.64 63.904 63.904 63.904h32.096v96H560v-96h32.096c35.296 0 63.904-28.672 63.904-63.904v-160.192A63.936 63.936 0 0 0 592.096-96h-160.192a63.936 63.936 0 0 0-63.904 63.904v160.192c0 35.296 28.672 63.904 63.904 63.904H464v96H224v-96h32.096C291.392 192 320 163.32799999999997 320 128.096v-160.192A63.936 63.936 0 0 0 256.096-96H95.904A63.936 63.936 0 0 0 32-32.096000000000004v160.192C32 163.39200000000005 60.672 192 95.904 192H128v128c0 39.328 24.448 64 64 64h272v96h96v-96H832c39.904 0 64.096-24.256 64.096-64v-128zM192 799.904C192 835.296 219.52 864 252.8 864h518.4c33.6 0 60.8-28.608 60.8-64.096v-255.808C832 508.704 804.48 480 771.2 480H252.8C219.2 480 192 508.608 192 544.096V799.904zM288 768v-192h448V768H288zM128 96v-96h96v96H128z m336 0v-96h96v96h-96zM800 96v-96h96v96h-96z"  horiz-adv-x="1024" />

    
    <glyph glyph-name="add-normal" unicode="&#59071;" d="M512 768a48 48 0 0 0 48-48v-288h288a48 48 0 0 0 0-96h-288v-288a48 48 0 0 0-96 0v288h-288a48 48 0 0 0 0 96h288v288A48 48 0 0 0 512 768z"  horiz-adv-x="1024" />

    
    <glyph glyph-name="align-center-vertical" unicode="&#59072;" d="M544-80a48 48 0 0 0-96 0v928a48 48 0 0 0 96 0v-928zM416 320v-256h-96a64 64 0 0 0-64 64v128a64 64 0 0 0 64 64h96z m0 384v-256H128a64 64 0 0 0-64 64V640a64 64 0 0 0 64 64h288z m448 0a64 64 0 0 0 64-64v-128a64 64 0 0 0-64-64h-288V704h288z m-192-384a64 64 0 0 0 64-64v-128a64 64 0 0 0-64-64h-96v256h96z"  horiz-adv-x="1024" />

    
    <glyph glyph-name="chart-radar" unicode="&#59073;" d="M536.448 841.568l367.104-208c15.136-8.576 24.448-24.416 24.448-41.568v-416c0-17.152-9.312-32.992-24.448-41.568l-367.104-208a49.728 49.728 0 0 0-48.896 0l-367.104 208A47.84 47.84 0 0 0 96 176v416c0 17.152 9.312 32.992 24.448 41.568l367.104 208a49.728 49.728 0 0 0 48.896 0zM512 744.576L192 564.288v-360.576l320-180.288 320 180.288V564.288L512 744.576z m25.088-127.008l173.824-96c15.52-8.576 25.088-24.416 25.088-41.568v-192a47.68 47.68 0 0 0-25.088-41.568l-173.824-96a52.16 52.16 0 0 0-50.176 0l-173.824 96A47.68 47.68 0 0 0 288 288v192c0 17.152 9.568 32.992 25.088 41.568l173.824 96a52.16 52.16 0 0 0 50.176 0zM512 520.576l-128-68.288v-136.576l128-68.288 128 68.288v136.576l-128 68.288z"  horiz-adv-x="1024" />

    
    <glyph glyph-name="align-center-horizontal" unicode="&#59074;" d="M0 368A48 48 0 0 0 48 416H192V736a64 64 0 0 0 64 64h128a64 64 0 0 0 64-64v-320h128v128a64 64 0 0 0 64 64h128a64 64 0 0 0 64-64v-128h144a48 48 0 0 0 0-96H832v-128a64 64 0 0 0-64-64h-128a64 64 0 0 0-64 64v128h-128v-320a64 64 0 0 0-64-64H256a64 64 0 0 0-64 64V320H48A48 48 0 0 0 0 368zM192 416h256v32H192v-32z m384 0h256v32h-256v-32zM192 288h256v32H192v-32z m384 0h256v32h-256v-32z"  horiz-adv-x="1024" />

    
    <glyph glyph-name="change" unicode="&#59075;" d="M240 528a48 48 0 0 0 33.92-81.952L163.84 336H560a48 48 0 1 0 0-96H163.84l110.08-110.08a48 48 0 1 0-67.84-67.872l-192 192a48 48 0 0 0 0 67.872l192 192c8.64 8.704 20.8 14.08 33.92 14.08z m544 192c13.12 0 25.28-5.376 33.92-14.08l192-192a48 48 0 0 0 0-67.872l-192-192a48 48 0 0 0-67.84 67.872l110.08 110.08H464a48 48 0 1 0 0 96h396.16l-110.08 110.048A48 48 0 0 0 784 720z"  horiz-adv-x="1024" />

    
    <glyph glyph-name="list" unicode="&#59076;" d="M912 96a48 48 0 0 0 0-96h-576a48 48 0 0 0 0 96h576z m-736 0a48 48 0 0 0 0-96h-64a48 48 0 0 0 0 96h64z m736 224a48 48 0 0 0 0-96h-576a48 48 0 0 0 0 96h576z m-736 0a48 48 0 0 0 0-96h-64a48 48 0 0 0 0 96h64z m736 224a48 48 0 0 0 0-96h-576a48 48 0 0 0 0 96h576z m-736 0a48 48 0 0 0 0-96h-64a48 48 0 0 0 0 96h64z m736 224a48 48 0 0 0 0-96h-576a48 48 0 0 0 0 96h576z m-736 0a48 48 0 0 0 0-96h-64a48 48 0 0 0 0 96h64z"  horiz-adv-x="1024" />

    
    <glyph glyph-name="telephone" unicode="&#59077;" d="M512 896c282.784 0 512-229.248 512-512s-229.216-512-512-512C229.248-128 0 101.24800000000005 0 384S229.248 896 512 896z m0-96C282.592 800 96 613.44 96 384s186.592-416 416-416c229.376 0 416 186.56 416 416S741.376 800 512 800z m-108.8-202.016c57.216-71.2 29.088-91.072-3.168-123.36-22.592-22.528 24.512-79.584 73.76-128.864 49.28-49.216 106.304-96.288 128.896-73.792 32.288 32.288 52.192 60.416 123.328 3.2 71.136-57.216 16.512-95.296-14.784-126.592-36.064-36.096-170.624-1.856-303.552 131.04-132.96 132.96-167.104 267.52-131.072 303.584 31.328 31.264 69.44 85.952 126.592 14.784z"  horiz-adv-x="1024" />

    
    <glyph glyph-name="progressbar" unicode="&#59078;" d="M816 608a208 208 0 1 0 0-416h-608a208 208 0 1 0 0 416h608z m0-96h-608a112 112 0 0 1 0-224h608a112 112 0 0 1 0 224z m-224-32a80 80 0 1 0 0-160h-384a80 80 0 1 0 0 160h384z"  horiz-adv-x="1024" />

    
    <glyph glyph-name="square" unicode="&#59079;" d="M128 832h768a64 64 0 0 0 64-64v-768a64 64 0 0 0-64-64H128a64 64 0 0 0-64 64V768a64 64 0 0 0 64 64z m32-96v-704h704V736H160z"  horiz-adv-x="1024" />

    
    <glyph glyph-name="password" unicode="&#59080;" d="M512 896c138.528 0 251.648-110.528 255.872-248.032L768 640v-128h64c36.544 0 61.632-29.152 63.84-59.648L896 448v-512c0-30.56-22.816-61.12-58.784-63.808L832-128H192c-37.472 0-61.728 29.152-63.84 59.648L128-64V448c0 30.56 23.36 61.12 58.848 63.808L192 512h64V640c0 141.184 114.816 256 256 256z m288-480H224v-448h576V416z m-288-117.344c23.52 0 42.656-19.104 42.656-42.656s-19.136-42.656-42.656-42.656A42.72 42.72 0 0 0 469.344 256c0 23.552 19.136 42.656 42.656 42.656zM512 800c-91.648 0-156.512-75.84-159.872-153.696L352 640v-128h320V640c0 80-65.888 160-160 160z m-128-544c0-53.536 33.248-98.976 80-118.08v-57.92c0-23.584 24.448-48 48-48s48 24.416 48 48l0.128 57.984C606.848 157.12 640 202.49599999999998 640 256c0 70.56-57.44 128-128 128s-128-57.44-128-128z"  horiz-adv-x="1024" />

    
    <glyph glyph-name="module" unicode="&#59081;" d="M320 480a64 64 0 0 0 64-64v-416a64 64 0 0 0-64-64H128a64 64 0 0 0-64 64V416a64 64 0 0 0 64 64h192z m576 0a64 64 0 0 0 64-64v-416a64 64 0 0 0-64-64H512a64 64 0 0 0-64 64V416a64 64 0 0 0 64 64h384zM288 384H160v-352h128V384z m576 0H544v-352h320V384z m32 448a64 64 0 0 0 64-64v-160a64 64 0 0 0-64-64H128a64 64 0 0 0-64 64V768a64 64 0 0 0 64 64h768z m-32-96H160v-96h704V736z"  horiz-adv-x="1024" />

    
    <glyph glyph-name="all" unicode="&#59082;" d="M420.576 352c32.832 0 59.424-26.592 59.424-59.424v-297.152A59.424 59.424 0 0 0 420.576-64H123.424A59.424 59.424 0 0 0 64-4.576000000000022v297.152C64 325.408 90.592 352 123.424 352h297.152z m480 0c32.832 0 59.424-26.592 59.424-59.424v-297.152A59.424 59.424 0 0 0 900.576-64h-297.152A59.424 59.424 0 0 0 544-4.576000000000022v297.152c0 32.832 26.592 59.424 59.424 59.424h297.152zM384 256H160v-224h224v224z m480 0h-224v-224h224v224zM420.576 832C453.408 832 480 805.408 480 772.576v-297.152A59.424 59.424 0 0 0 420.576 416H123.424A59.424 59.424 0 0 0 64 475.424V772.576C64 805.408 90.592 832 123.424 832h297.152z m480 0C933.408 832 960 805.408 960 772.576v-297.152A59.424 59.424 0 0 0 900.576 416h-297.152A59.424 59.424 0 0 0 544 475.424V772.576C544 805.408 570.592 832 603.424 832h297.152zM384 736H160v-224h224V736z m480 0h-224v-224h224V736z"  horiz-adv-x="1024" />

    
    <glyph glyph-name="triangle" unicode="&#59083;" d="M469.37984 870.08c17.92 34.56 67.36 34.56 85.248 0l464-896A48 48 0 0 0 976.00384-96h-928a48 48 0 0 0-42.624 70.08l464 896zM512.00384 743.616L126.91584 0h770.176L512.00384 743.616z"  horiz-adv-x="1024" />

    
    <glyph glyph-name="maximize" unicode="&#59084;" d="M96 704v-640h832V704H96z m-22.848 96h877.696C991.264 800 1024 768.96 1024 730.656v-693.312C1024-0.9600000000000364 991.264-32 950.848-32H73.152C32.736-32 0-0.9600000000000364 0 37.34400000000005V730.656C0 768.96 32.736 800 73.152 800z m552.384-160H864v-238.464a17.536 17.536 0 0 0-29.952-12.384L613.12 610.048A17.536 17.536 0 0 0 625.536 640z"  horiz-adv-x="1024" />

    
    <glyph glyph-name="close-circle" unicode="&#59085;" d="M512-128C229.248-128 0 101.12 0 384S229.248 896 512 896s512-229.12 512-512-229.248-512-512-512z m0 928C282.624 800 96 613.44 96 384s186.624-416 416-416 416 186.56 416 416S741.376 800 512 800z m191.616-561.92c-0.48-11.52-4.832-23.04-13.696-32-8.896-8.96-20.384-13.12-32-13.76-12.928-0.32-26.016 3.84-35.872 13.76L512 316.15999999999997l-110.016-110.08c-9.888-9.92-22.944-14.08-35.872-13.76a47.904 47.904 0 0 0-32 13.76 47.808 47.808 0 0 0-13.696 32c-0.544 13.12 3.808 25.92 13.696 35.84L444.128 384l-110.016 110.08a47.104 47.104 0 0 0-13.696 35.84c0.48 11.52 4.8 23.04 13.696 32 8.864 8.96 20.352 13.12 32 13.76 12.928 0.32 25.984-3.84 35.872-13.76L512 451.84l110.048 110.08c9.856 9.92 22.944 14.08 35.872 13.76 11.616-0.64 23.104-4.8 32-13.76 8.864-8.96 13.216-20.48 13.696-32 0.512-13.12-3.84-25.92-13.696-35.84L579.872 384l110.048-110.08c9.856-9.92 14.208-22.72 13.696-35.84z"  horiz-adv-x="1024" />

    
    <glyph glyph-name="scan" unicode="&#59086;" d="M64 576V768c0 32 25.312 64 64 64h160s48 0 48-48S288 736 288 736H160v-160s0-48-48-48S64 576 64 576z m896 0V768c0 32-25.312 64-64 64h-160s-48 0-48-48S736 736 736 736h128v-160s0-48 48-48S960 576 960 576zM64 192v-192c0-32 25.312-64 64-64h160s48 0 48 48S288 32 288 32H160v160s0 48-48 48S64 192 64 192z m896 0v-192c0-32-25.312-64-64-64h-160s-48 0-48 48S736 32 736 32h128v160s0 48 48 48S960 192 960 192zM112 448h800s48 0 48-48-48-48-48-48h-800S64 352 64 400 112 448 112 448z"  horiz-adv-x="1024" />

    
    <glyph glyph-name="link" unicode="&#59089;" d="M825.952 335.93600000000004a47.84 47.84 0 0 0-67.872 0 47.936 47.936 0 0 0 0 67.872l91.072 91.072A159.04 159.04 0 0 1 896 608.0319999999999 160.16 160.16 0 0 1 736 768c-42.72 0-82.912-16.64-113.12-46.88l-160-159.968A158.912 158.912 0 0 1 416 448.032c0-54.656 27.648-105.024 73.92-134.72 11.136-7.104 18.336-18.112 20.96-30.112 2.656-12 0.704-24.992-6.464-36.192a47.68 47.68 0 0 0-30.016-20.928 47.68 47.68 0 0 0-36.288 6.432A255.04 255.04 0 0 0 320 448.032c0 68.352 26.624 132.672 75.008 180.992l159.968 159.968A254.208 254.208 0 0 0 736 864c141.152 0 256-114.848 256-255.968a254.272 254.272 0 0 0-74.976-181.024l-91.072-91.072z m-424.832-289.056l160.032 160A158.912 158.912 0 0 1 608 320a159.456 159.456 0 0 1-73.888 134.688 47.808 47.808 0 0 0-20.992 30.176 47.552 47.552 0 0 0 6.496 36.128 47.872 47.872 0 0 0 66.304 14.528A255.104 255.104 0 0 0 704 320a254.208 254.208 0 0 0-74.976-180.992l-160-160A254.208 254.208 0 0 0 288-96c-141.152 0-256 114.848-256 256 0 68.384 26.624 132.704 75.008 180.992l91.072 91.104a47.712 47.712 0 0 0 33.92 14.048 47.84 47.84 0 0 0 48-47.104c0.224-12.576-4.448-25.216-14.048-34.816l-91.072-91.104A158.816 158.816 0 0 1 128 160c0-88.224 71.776-160 160-160a158.88 158.88 0 0 1 113.12 46.88z"  horiz-adv-x="1024" />

    
    <glyph glyph-name="filter" unicode="&#59090;" d="M181.952 768.16l230.048-417.76a160.32 160.32 0 0 0 20.416-78.304v-205.888l159.168-51.136v257.024c0 27.424 7.04 54.4 20.416 78.304l230.048 417.76H181.952zM127.616 864h768.8C931.52 864 960 835.392 960 800.096c0-10.976-2.816-21.76-8.16-31.328l-256.704-465.344a64.128 64.128 0 0 1-8.16-31.328v-304.192c0-35.296-28.48-63.904-63.584-63.904-8.096 0-16.096 1.536-23.616 4.576l-222.784 76.672a63.904 63.904 0 0 0-39.968 59.328v227.52c0 10.976-2.816 21.76-8.16 31.36L72.192 768.736a64.064 64.064 0 0 0 24.224 87.04A63.36 63.36 0 0 0 127.616 864z"  horiz-adv-x="1024" />

    
    <glyph glyph-name="align-up" unicode="&#59091;" d="M0 848A48 48 0 0 0 48 896h928a48 48 0 0 0 0-96h-928A48 48 0 0 0 0 848zM576 384V608a64 64 0 0 0 64 64h128a64 64 0 0 0 64-64v-224a64 64 0 0 0-64-64h-128a64 64 0 0 0-64 64zM192 0V608a64 64 0 0 0 64 64h128a64 64 0 0 0 64-64v-608a64 64 0 0 0-64-64H256a64 64 0 0 0-64 64z"  horiz-adv-x="1024" />

    
    <glyph glyph-name="delete" unicode="&#59092;" d="M864 576v-576c0-48-44.416-96-96-96H256c-51.456 0-96 48-96 96V576h704z m-512-96H256v-480h96V480z m224 0h-128v-480h128V480z m192 0h-96v-480h96V480zM576 864c96 0 96-96 96-96h240S960 768 960 720c0-44-40.32-47.68-47.04-48H111.04C104.32 672.3199999999999 64 675.808 64 719.904 64 768 112 768 112 768H352s0 96 96 96h128z"  horiz-adv-x="1024" />

    
    <glyph glyph-name="chat" unicode="&#59093;" d="M96-48a48 48 0 0 1 67.84-43.712l158.176 71.904c56.32-18.944 121.44-28.192 189.984-28.192 277.536 0 512 193.024 512 452.096C1024 659.456 793.6 864 512 864S0 659.456 0 404.096c0-96.8 36.32-167.808 96-245.056v-207.04z m96 224a48 48 0 0 1-11.36 31.008C128.8 268.32000000000005 96 324.22400000000005 96 404.096 96 603.712 281.056 768 512 768s416-164.288 416-363.904C928 198.94399999999996 737.376 48 512 48c-65.408 0-126.08 9.696-174.464 28.672a48 48 0 0 1-37.408-0.96L192 26.559999999999945V176zM288 352a64 64 0 1 1 0 128 64 64 0 0 1 0-128z m224 0a64 64 0 1 1 0 128 64 64 0 0 1 0-128z m224 0a64 64 0 1 1 0 128 64 64 0 0 1 0-128z"  horiz-adv-x="1024" />

    
    <glyph glyph-name="square-solid" unicode="&#59094;" d="M128 832h768a64 64 0 0 0 64-64v-768a64 64 0 0 0-64-64H128a64 64 0 0 0-64 64V768a64 64 0 0 0 64 64z m32-96v-704h704V736H160z"  horiz-adv-x="1024" />

    
    <glyph glyph-name="video" unicode="&#59095;" d="M0 384C0 666.24 229.696 896 512 896s512-229.76 512-512-229.696-512-512-512S0 101.75999999999999 0 384z m96 0c0-229.44 186.592-416 416-416 229.376 0 416 186.56 416 416S741.376 800 512 800C282.592 800 96 613.44 96 384z m613.76 35.52l-264.256 152.48c-26.88 15.584-61.504-4.352-61.504-35.52v-305.824c0-31.2 33.792-51.104 61.504-35.52l264.224 152.48c26.88 16.448 26.88 56.32 0 71.904z"  horiz-adv-x="1024" />

    
    <glyph glyph-name="skin" unicode="&#59096;" d="M239.89152 736l-124.16-155.84 66.592-64.32c9.088 7.808 20.864 12.16 33.088 12.16H272.01952c27.456 0 48-21.504 48-48v-448h384V480c0 26.496 20.544 48 48 48h59.84c12.064 0 23.616-4.192 32.64-11.776l64.416 63.776L787.12352 736h-12.48c-54.944-84.704-144-128-260.992-128-117.024 0-206.08 43.296-261.024 128h-12.736zM147.12352 414.08l-132.544 128a46.784 46.784 0 0 0-4.256 63.2l165.696 208C185.42752 825.088 199.98752 832 215.37952 832h66.272a49.92 49.92 0 0 0 44.48-26.56C361.55552 737.024 421.36352 704 513.61952 704s152.064 32.992 187.52 101.44A49.92 49.92 0 0 0 745.61952 832h66.24c15.616 0 30.336-7.072 39.712-19.104l162.432-208c14.784-18.912 13.024-45.44-4.096-62.4l-129.28-128c-18.72-18.528-60.928-15.52-80.608 1.504v-400c0-44.16-34.24-80-80-80h-416C258.25952-64 224.01952-28.159999999999968 224.01952 16V416c-19.52-16.896-58.144-20.064-76.896-1.92z"  horiz-adv-x="1024" />

    
    <glyph glyph-name="setting-gear" unicode="&#59097;" d="M922.56 320a412.704 412.704 0 0 0-74.976-181.12l29.632-29.6c12.512-12.448 18.752-28.832 18.752-45.248a63.68 63.68 0 0 0-18.752-45.248c-12.416-12.48-28.768-18.72-45.152-18.752a63.68 63.68 0 0 0-45.344 18.752l-29.632 29.632A412.8 412.8 0 0 0 576-26.559999999999945V-64a64 64 0 0 0-128 0v37.44a413.44 413.44 0 0 0-181.088 74.944l-29.664-29.632A63.584 63.584 0 0 0 192 0a63.68 63.68 0 0 0-45.248 18.752A63.68 63.68 0 0 0 128 63.87199999999996a63.68 63.68 0 0 0 18.752 45.376l29.664 29.632A413.12 413.12 0 0 0 101.44 320H64a64 64 0 0 0 0 128h37.44a412.864 412.864 0 0 0 74.944 181.056l-29.664 29.696A63.744 63.744 0 0 0 127.968 704c0 16.384 6.24 32.736 18.752 45.248a63.616 63.616 0 0 0 45.216 18.784c16.416 0 32.8-6.24 45.28-18.784l29.664-29.664A413.248 413.248 0 0 0 448 794.56V832a64 64 0 0 0 128 0v-37.44a415.104 415.104 0 0 0 73.792-18.432s74.784-32.704 107.296-56.512l29.632 29.632A63.808 63.808 0 0 0 831.968 768a63.68 63.68 0 0 0 45.248-18.752c12.544-12.512 18.784-28.864 18.784-45.248 0-16.384-6.24-32.736-18.784-45.248l-29.632-29.632A412.576 412.576 0 0 0 922.56 448H960a64 64 0 1 0 0-128h-37.44zM192 384c0-177.792 142.208-320 320-320s320 142.208 320 320S668.832 704 512 704C334.208 704 192 561.7919999999999 192 384z m128 0a192 192 0 1 0 384 0 192 192 0 1 0-384 0z m192 96c-52.928 0-96-43.072-96-96s43.072-96 96-96 96 43.072 96 96-43.072 96-96 96z"  horiz-adv-x="1024" />

    
    <glyph glyph-name="setting-wrench" unicode="&#59098;" d="M613.006924 800.003a280.95122 280.95122 0 0 0 55.03828-5.535827L545.265041 671.623012a111.03653 111.03653 0 0 1-33.214962-79.549514c0-29.919065 11.679635-58.014187 32.862973-79.197525l95.997-95.997a111.164526 111.164526 0 0 1 79.165526-32.798975c29.919065 0 58.046186 11.647636 79.197525 32.830974l123.164151 123.132152c16.415487-82.685416-4.575857-164.282866-59.294147-219.001157-41.790694-41.758695-99.964876-64.765976-163.83488-64.765976a290.102934 290.102934 0 0 0-90.23718 14.71954 95.773007 95.773007 0 0 1-97.692948-23.391269l-266.327677-266.327677-135.803756 135.771757 266.359676 266.327677a95.997 95.997 0 0 1 23.35927 97.692948 288.95097 288.95097 0 0 0-14.911534 95.03703c1.27996 61.214087 23.871254 117.916315 64.95797 159.03503C490.86674 776.96372 549.104921 800.003 613.006924 800.003z m0 95.997c-86.3973 0-169.498703-30.623043-231.896754-92.957095C319.99208 741.892816 289.177043 660.711353 288.057078 576.0739980000001a385.523952 385.523952 0 0 1 19.679385-124.7961L18.785493 162.26292899999999a63.710009 63.710009 0 0 1-18.55942-50.23843c1.119965-14.623543 7.35977-28.991094 18.55942-40.254742l180.986344-181.018343c12.47961-12.511609 28.895097-18.751414 45.278585-18.751414 16.31949 0 32.734977 6.239805 45.246586 18.751414l288.950971 288.95097c39.582763-12.927596 80.157495-19.455392 120.060248-19.455392 86.301303 0 169.370707 30.559045 231.736758 92.893097 99.1969 99.260898 118.07631 251.19215 60.926096 385.011969a55.166276 55.166276 0 0 1-89.757195 17.375457l-170.810662-170.778663a15.9995 15.9995 0 0 0-22.623293 0l-95.997 95.997a15.839505 15.839505 0 0 0 0 22.623293l170.778663 170.778663c12.959595 12.991594 18.655417 31.551014 15.135527 49.534452A55.134277 55.134277 0 0 1 766.218136 864.001c-49.790444 21.247336-102.07681 31.999-153.211212 31.999z"  horiz-adv-x="1024" />

    
    <glyph glyph-name="swipe" unicode="&#59099;" d="M256 832h512a64 64 0 0 0 64-64v-768a64 64 0 0 0-64-64H256a64 64 0 0 0-64 64V768a64 64 0 0 0 64 64z m32-96v-704h448V736H288z m640-32a64 64 0 0 0 64-64v-512a64 64 0 1 0-128 0V640a64 64 0 0 0 64 64zM96 704a64 64 0 0 0 64-64v-512a64 64 0 1 0-128 0V640a64 64 0 0 0 64 64z m560-96a48 48 0 0 0 0-96h-96v-304a48 48 0 0 0-96 0V512h-96a48 48 0 0 0 0 96h288z"  horiz-adv-x="1024" />

    
    <glyph glyph-name="software-download" unicode="&#59100;" d="M0 32c0-32 25.856-64 64-64h896c39.328 0 64 32 64 64V736c0 32-24 64-64 64H64C25.12 800 0 768 0 736v-704zM96 640h832v-576H96V640z m0 80a48 48 0 1 0 96.032-0.032 48 48 0 0 0-96.032 0z m160 0a48 48 0 1 0 96.032-0.032 48 48 0 0 0-96.032 0z m160 0a48 48 0 1 0 96.032-0.032 48 48 0 0 0-96.032 0z m289.952-417.92l-160-160a48 48 0 0 0-67.872 0l-160 160a48 48 0 1 0 67.872 67.84l78.048-78.08V528a48 48 0 1 0 96 0v-236.16l78.08 78.08a48 48 0 1 0 67.872-67.84z"  horiz-adv-x="1024" />

    
    <glyph glyph-name="reduce-square" unicode="&#59101;" d="M128 832C89.44 832 64 800 64 768v-768c0-32 25.248-64 64-64h768c38.912 0 64 32 64 64V768c0 32-25.92 64-64 64H128z m736-800H160V736h704v-704z m-128 352a48 48 0 0 0-48-48h-352a48 48 0 0 0 0 96h352A48 48 0 0 0 736 384z"  horiz-adv-x="1024" />

    
    <glyph glyph-name="image" unicode="&#59102;" d="M960-32H64a64 64 0 0 0-64 64V736a64 64 0 0 0 64 64h896a64 64 0 0 0 64-64v-704a64 64 0 0 0-64-64zM928 704H96v-358.304c10.816-4.768 21.152-9.568 31.136-14.304C176.224 308.096 218.624 288 309.152 288c90.56 0 132.992 20.096 182.144 43.392C543.392 356.06399999999996 602.432 384 714.592 384c105.216 0 163.552-24.576 213.408-48.032V704z m0-473.76a1189.12 1189.12 0 0 0-31.264 14.4C847.584 267.904 805.152 288 714.592 288c-90.592 0-133.024-20.096-182.176-43.36C480.32 219.96799999999996 421.28 192 309.152 192 204.064 192 145.792 216.57600000000002 96 239.93600000000004V64h832v166.24zM288 448a64 64 0 1 0 0 128 64 64 0 0 0 0-128z"  horiz-adv-x="1024" />

    
    <glyph glyph-name="shape" unicode="&#59105;" d="M601.664 423.808l256-448A48 48 0 0 0 816-96h-512a48 48 0 0 0-41.664 71.808l256 448a48 48 0 0 0 83.328 0zM560 303.264L386.72 0h346.56L560 303.264zM144 704h384a112 112 0 0 0 111.84-105.856L640 592V544a48 48 0 0 0-95.776-4.608L544 544V592a16 16 0 0 1-13.12 15.744L528 608h-384a16 16 0 0 1-15.744-13.12L128 592v-384a16 16 0 0 1 13.12-15.744L144 192H224a48 48 0 0 0 4.608-95.776L224 96H144a112 112 0 0 0-111.84 105.856L32 208v384a112 112 0 0 0 105.856 111.84L144 704h384z m513.12 160C842.112 864 992 713.5360000000001 992 528c0-112.416-55.488-215.52-146.336-277.728a48 48 0 1 0-54.208 79.232A240 240 0 0 1 896 528C896 660.576 789.024 768 657.12 768a236.736 236.736 0 0 1-107.424-25.568 48 48 0 0 0-43.392 85.632A332.736 332.736 0 0 0 657.12 864z"  horiz-adv-x="1024" />

    
    <glyph glyph-name="home" unicode="&#59106;" d="M512 776.761497l319.9977-319.9977v-488.220491h-159.99885v223.99839a63.99954 63.99954 0 0 1-63.99954 63.99954h-191.99862a63.99954 63.99954 0 0 1-63.99954-63.99954v-223.99839H192.0023V456.763797l319.9977 319.9977z m28.287797 107.519227a39.967713 39.967713 0 0 1-56.575594 0l-368.957348-368.957348A64.03154 64.03154 0 0 1 96.00299 469.979702v-533.436166a63.99954 63.99954 0 0 1 63.99954-63.99954h223.99839a63.99954 63.99954 0 0 1 63.99954 63.99954v223.99839h127.99908v-223.99839a63.99954 63.99954 0 0 1 63.99954-63.99954h223.99839a63.99954 63.99954 0 0 1 63.99954 63.99954v533.436166c0 16.991878-6.751951 33.279761-18.751865 45.279675L540.287797 884.248724z"  horiz-adv-x="1024" />

    
    <glyph glyph-name="grid" unicode="&#59107;" d="M960 768c35.36 0 64-27.52 64-61.44v-645.12c0-33.92-28.64-61.44-64-61.44H64c-35.36 0-64 27.52-64 61.44V706.56C0 740.48 28.64 768 64 768h896zM224 224H96v-128h128v128z m240 0H320v-128h144v128z m240 0h-144v-128H704v128z m224 0h-128v-128h128v128zM224 448H96v-128h128v128z m240 0H320v-128h144v128z m240 0h-144v-128H704v128z m224 0h-128v-128h128v128zM224 672H96v-127.968h128V672z m240 0H320v-127.968h144V672zM704 672h-144v-127.968H704V672z m224 0h-128v-127.968h128V672z"  horiz-adv-x="1024" />

    
    <glyph glyph-name="bell" unicode="&#59108;" d="M905.76 182.62400000000002C844.096 235.93600000000004 800 377.6 800 544c0 125.952-80.96 232.736-193.6 271.84A95.808 95.808 0 0 1 512 896a95.808 95.808 0 0 1-94.4-80.16C304.992 776.736 224 669.952 224 544c0-166.368-44.064-308-105.76-361.344A156.96 156.96 0 0 1 64 64a96 96 0 0 1 96-96h256a96 96 0 1 1 192 0h256a96 96 0 0 1 96 96 156.8 156.8 0 0 1-54.24 118.624zM160 64c0 17.664 7.68 34.464 21.024 46.048C266.752 184.12800000000004 320 350.432 320 544c0 105.888 86.144 192 192 192 105.888 0 192-86.112 192-192 0-193.568 53.248-359.872 138.976-433.984A60.8 60.8 0 0 0 864 64H160z"  horiz-adv-x="1024" />

    
    <glyph glyph-name="forward" unicode="&#59109;" d="M128-64a64 64 0 1 0 0 128h336V668.16l-206.08-206.08a48 48 0 1 0-67.872 67.84l288 288a48 48 0 0 0 67.872 0l288-288a48 48 0 1 0-67.872-67.84L560 668.16V64H896a64 64 0 1 0 0-128H128z"  horiz-adv-x="1024" />

    
    <glyph glyph-name="calendar" unicode="&#59110;" d="M832 704V800c0 32-25.024 64-64 64-39.04 0-64-32-64-64v-96H320V800c0 32-26.4 64-64 64-37.248 0-64-32-64-64v-96H96C58.432 704 32 672 32 640v-672c0-32 27.008-64 64-64h832c38.208 0 64 32 64 64V640c0 32-25.92 64-64 64h-96z m64-704H128V384h768v-384z m0 480H128V608h768v-128zM243.2 320c-28.288 0-51.2-21.504-51.2-48S214.912 224 243.2 224h537.6c28.288 0 51.2 21.504 51.2 48s-22.912 48-51.2 48H243.2z m0-160c-28.288 0-51.2-21.504-51.2-48S214.912 64 243.2 64h537.6c28.288 0 51.2 21.504 51.2 48s-22.912 48-51.2 48H243.2z"  horiz-adv-x="1024" />

    
    <glyph glyph-name="counter" unicode="&#59111;" d="M928 768a64 64 0 0 0 64-64v-640a64 64 0 0 0-64-64H96a64 64 0 0 0-64 64V704a64 64 0 0 0 64 64h832z m-32-96H128v-576h768V672z m-141.376-125.44c14.048 0 27.552-1.728 40.544-5.152a99.52 99.52 0 0 0 34.272-16.128c9.856-7.328 17.696-16.512 23.52-27.552 5.824-11.04 8.736-24.192 8.736-39.424 0-17.6-4.64-32.704-13.888-45.248-9.28-12.544-22.72-20.608-40.32-24.192v-1.344c9.568-1.184 17.984-4.032 25.312-8.512 7.328-4.48 13.504-10.016 18.592-16.576 5.088-6.56 8.96-14.048 11.648-22.4 2.688-8.352 4.032-17.184 4.032-26.432 0-15.84-3.072-29.728-9.184-41.664a87.104 87.104 0 0 0-24.64-29.792c-10.304-7.904-22.4-13.824-36.288-17.696a163.2 163.2 0 0 0-44.128-5.824c-28.384 0-52.8 6.56-73.248 19.712-20.48 13.12-33.984 33.92-40.544 62.272l70.784 16.576c2.4-11.36 7.232-20.32 14.56-26.88 7.328-6.56 18.144-9.856 32.48-9.856 14.624 0 25.472 3.808 32.48 11.424 7.04 7.616 10.528 17.408 10.528 29.344 0 8.96-1.856 15.904-5.6 20.832a33.472 33.472 0 0 1-14.56 10.976 64.416 64.416 0 0 1-20.16 4.256 373.92 373.92 0 0 1-22.4 0.672h-15.68v58.24h21.952c6.272 0 12.384 0.448 18.368 1.344 5.984 0.896 11.424 2.624 16.352 5.152a30.496 30.496 0 0 1 11.872 10.752c2.976 4.64 4.48 10.688 4.48 18.144a29.472 29.472 0 0 1-11.424 23.744 42.592 42.592 0 0 1-28 9.408c-10.464 0-19.104-2.848-25.984-8.512a39.04 39.04 0 0 1-13.44-21.056l-73.92 15.232c3.584 13.76 8.96 25.472 16.128 35.168 7.168 9.696 15.68 17.536 25.536 23.52a112.736 112.736 0 0 0 32.928 13.216 167.296 167.296 0 0 0 38.304 4.256zM326.208 544v-320.352H261.696v245.088l-63.616-56L160 456.64 263.488 544h62.72z m190.464 2.56c14.336 0 27.776-2.016 40.32-6.048s23.456-10.016 32.704-17.92c9.28-7.904 16.512-17.856 21.728-29.792 5.216-11.936 7.84-25.824 7.84-41.664 0-10.144-1.056-19.328-3.136-27.552s-4.992-15.68-8.736-22.4c-3.744-6.72-8.128-12.928-13.216-18.592a216.96 216.96 0 0 0-16.576-16.576l-96.32-82.88h140.672V224H400.64v71.232l123.2 110.656c6.272 5.664 12.544 12.096 18.816 19.264 6.272 7.168 9.408 15.52 9.408 25.088 0 10.752-3.872 19.2-11.648 25.312a42.848 42.848 0 0 1-27.328 9.184c-12.544 0-22.336-3.872-29.344-11.648-7.04-7.776-10.976-17.312-11.872-28.672l-67.2 4.928c0.896 16.416 4.32 30.688 10.304 42.784a89.92 89.92 0 0 0 23.744 30.24c9.856 8.064 21.44 14.112 34.72 18.144a148.288 148.288 0 0 0 43.232 6.048z"  horiz-adv-x="1024" />

    
    <glyph glyph-name="file-search" unicode="&#59112;" d="M656 384a208 208 0 0 0 177.056-317.216l0.896-0.832 112-112a48 48 0 0 0-64.256-71.2l-3.648 3.296-112 112a48.96 48.96 0 0 0-0.832 0.896A208 208 0 1 0 656 384zM832 896a64 64 0 0 0 63.84-59.36L896 832v-368a48 48 0 0 0-95.776-4.608L800 464V800H160v-800h240a48 48 0 0 0 4.608-95.776L400-96H128a63.04 63.04 0 0 0-63.84 59.136L64-32V832C64 866.08 90.208 893.44 123.232 895.84L128 896h704z m-176-608a112 112 0 1 1 0-224 112 112 0 0 1 0 224z m-160 224a48 48 0 0 0 0-96h-224a48 48 0 0 0 0 96h224z m192 160a48 48 0 0 0 0-96h-416a48 48 0 0 0 0 96h416z"  horiz-adv-x="1024" />

    
    <glyph glyph-name="data" unicode="&#59113;" d="M96 672v-576c0-123.488 168.96-224 416-224s416 100.512 416 224V672c0 123.52-168.96 224-416 224S96 795.52 96 672z m736 0c0-38.272-87.744-128-320-128C279.776 544 192 633.7280000000001 192 672c0 38.272 87.776 128 320 128 232.256 0 320-89.728 320-128zM512-32c-232.224 0-320 89.728-320 128v149.888C274.112 193.69600000000003 369.216 160 512 160c142.816 0 237.92 33.696 320 85.888V96c0-38.272-87.744-128-320-128zM192 384v149.888C274.112 481.696 369.216 448 512 448c142.816 0 237.92 33.696 320 85.888V384c0-38.272-87.744-128-320-128-232.224 0-320 89.728-320 128z"  horiz-adv-x="1024" />

    
    <glyph glyph-name="file-user" unicode="&#59114;" d="M160 0V800h640v-368a48 48 0 0 1 96 0V832c0 34.368-27.744 64-64 64H128C92.768 896 64 867.712 64 832v-864c0-36.064 27.968-64 64-64h272a48 48 0 0 1 0 96H160z m576 384c62.72 0 112-52.8 112-120 0-57.6-13.792-105.28-40.128-135.04 8.192-17.92 19.936-22.432 25.088-24.224C899.84 81.44000000000005 960 54.08000000000004 960-32c-2.24-23.264-17.824-96-225.12-96C683.616-128 512-118.72000000000003 512-32.57600000000002c0 86.08 60.16 114.016 127.04 134.976 3.648 1.92 16.128 6.88 24.256 27.52-25.792 29.792-39.296 77.12-39.296 134.08 0 67.2 49.28 120 112 120z m-2.016-287.904l-0.64-1.44c-12.224-25.152-31.84-50.592-61.248-63.04-34.848-14.656-79.968-24.448-79.968-53.824 0-17.184 74.496-25.6 137.216-26.144l6.656-0.032c63.968 0 144.128 8.384 144.128 26.176 0 30.816-45.216 39.168-80.096 53.824a139.2 139.2 0 0 0-61.12 62.624l-0.864 1.792L736 96l-2.016 0.096zM736 304c-17.28 0-32-15.808-32-40 0-45.184 10.496-74.56 22.4-84.384 4.8-2.688 7.808-3.616 9.6-3.616 1.792 0 4.8 0.928 9.6 3.616 11.904 9.856 22.4 39.2 22.4 84.384 0 24.192-14.72 40-32 40zM496 512a48 48 0 0 0 0-96h-224a48 48 0 0 0 0 96h224z m192 160a48 48 0 0 0 0-96h-416a48 48 0 0 0 0 96h416z"  horiz-adv-x="1024" />

    
    <glyph glyph-name="material" unicode="&#59115;" d="M851.328 435.808V576.2239999999999c0 64.48-52.928 115.104-115.104 115.104H595.84v34.56A138.56 138.56 0 0 1 457.664 864a138.56 138.56 0 0 1-138.112-138.144v-34.528H179.104C114.656 691.328 64 638.4 64 576.2239999999999V412.8c0-16.096 13.824-29.92 29.92-29.92H158.4c46.016 0 85.184-39.136 85.184-85.184 0-46.048-39.168-85.184-85.184-85.184H93.92a30.464 30.464 0 0 1-29.92-29.92v-163.456C64-45.34400000000005 116.96-96 179.104-96h163.456a30.464 30.464 0 0 1 29.92 29.92V-1.6000000000000227c0 46.016 39.136 85.152 85.184 85.152 46.048 0 85.184-39.136 85.184-85.152v-64.48c0-16.096 13.824-29.92 29.92-29.92h163.456c64.48 0 115.104 52.96 115.104 115.104v140.448h34.56c75.968 0 138.112 59.84 138.112 135.808a135.68 135.68 0 0 1-135.84 140.448h-36.8zM638.848 0c-0.896 98.336-82.656 179.552-181.184 179.552-98.528 0-180.288-81.216-181.152-179.552H179.104A19.456 19.456 0 0 0 160 19.104000000000042v97.408c98.336 0.864 179.584 82.624 179.584 181.152 0 98.56-81.248 180.288-179.584 181.184V576.2239999999999c0 10.24 8.768 19.104 19.104 19.104h236.448v130.56c0 22.944 19.168 42.112 42.112 42.112 22.944 0 42.144-19.2 42.144-42.144v-130.528h236.416c10.24 0 19.104-8.736 19.104-19.104v-236.416h132.832c22.72 0 40.576-18.304 39.872-41.6-0.032-24.864-18.24-42.656-42.176-42.656h-130.528v-236.448c0-10.24-8.736-19.104-19.104-19.104h-97.376z"  horiz-adv-x="1024" />

    
    <glyph glyph-name="folder-expansion" unicode="&#59116;" d="M896 512h64a64 64 0 0 0 60.352-85.312L896-16a51.936 51.936 0 0 0-6.88-12.896A64 64 0 0 0 832-64H64a64 64 0 0 0-64 64V768a64 64 0 0 0 64 64h256l96-96h416a64 64 0 0 0 64-64v-160z m-96 0V640H376.224l-96 96H96v-453.024l54.464 186.336A64 64 0 0 0 210.816 512H800zM233.76 416L119.68 32h694.88l103.904 384H233.76z"  horiz-adv-x="1024" />

    
    <glyph glyph-name="textalign-center" unicode="&#59117;" d="M800 128a64 64 0 1 0 0-128H224a64 64 0 1 0 0 128h576z m-96 320a64 64 0 1 0 0-128H320a64 64 0 1 0 0 128h384z m192 320a64 64 0 1 0 0-128H128a64 64 0 1 0 0 128h768z"  horiz-adv-x="1024" />

    
    <glyph glyph-name="textalign-left" unicode="&#59118;" d="M704 128a64 64 0 1 0 0-128H128a64 64 0 1 0 0 128h576z m-192 320a64 64 0 1 0 0-128H128a64 64 0 1 0 0 128h384zM896 768a64 64 0 1 0 0-128H128a64 64 0 1 0 0 128h768z"  horiz-adv-x="1024" />

    
    <glyph glyph-name="exit" unicode="&#59119;" d="M512-128C247.328-128 32 86.62400000000002 32 350.55999999999995 32 507.136 109.472 654.08 239.264 743.7760000000001c7.68 5.248 16.352 7.904 25.024 8.16a46.24 46.24 0 0 0 27.872-84.32c-104.736-72.352-167.264-190.88-167.264-317.024 0-212.8 173.632-385.984 387.104-385.984 213.44 0 387.104 173.152 387.104 385.984 0 126.144-62.528 244.672-167.264 317.024a46.208 46.208 0 0 0 27.04 84.352c8.96-0.096 17.952-2.752 25.856-8.192C914.528 654.112 992 507.136 992 350.592c0-263.936-215.328-478.624-480-478.624z m0 640a48 48 0 0 0-48 48v288a48 48 0 1 0 96 0v-288A48 48 0 0 0 512 512z"  horiz-adv-x="1024" />

    
    <glyph glyph-name="chart-scatter" unicode="&#59120;" d="M112 832A48 48 0 0 0 160 784V32h752a48 48 0 0 0 0-96h-800A48 48 0 0 0 64-16v800A48 48 0 0 0 112 832zM448 512a192 192 0 1 0 0-384 192 192 0 0 0 0 384z m32 128a96 96 0 1 1 0 192 96 96 0 0 1 0-192z m352-544a128 128 0 1 1 0 256 128 128 0 0 1 0-256z"  horiz-adv-x="1024" />

    
    <glyph glyph-name="down-arrow" unicode="&#59121;" d="M128 416a48 48 0 0 0 33.92-14.08l302.08-302.08V784a48 48 0 1 0 96 0v-684.16l302.048 302.08a48 48 0 1 0 67.872-67.84l-384-384a48 48 0 0 0-67.872 0l-384 384A48 48 0 0 0 128 416z"  horiz-adv-x="1024" />

    
    <glyph glyph-name="file" unicode="&#59122;" d="M640 896H192a64 64 0 0 1-64-64v-896a64 64 0 0 1 64-64h640a64 64 0 0 1 64 64V640l-256 256zM224-32V800h384v-192h192v-640H224z"  horiz-adv-x="1024" />

    
    <glyph glyph-name="minimize" unicode="&#59123;" d="M96 704v-640h832V704H96z m-22.848 96h877.696C991.264 800 1024 768.96 1024 730.656v-693.312C1024-0.9600000000000364 991.264-32 950.848-32H73.152C32.736-32 0-0.9600000000000364 0 37.34400000000005V730.656C0 768.96 32.736 800 73.152 800z m325.312-672H160v238.464a17.536 17.536 0 0 0 29.952 12.384l220.896-220.896a17.536 17.536 0 0 0-12.384-29.952z"  horiz-adv-x="1024" />

    
    <glyph glyph-name="file-text" unicode="&#59124;" d="M160 896C121.664 896 96 864 96 832v-896c0-32 24.96-64 64-64h704c38.848 0 64 32 64 64V832c0 32-25.376 64-64 64H160z m672-928H192V800h640v-832zM307.2 512c-28.288 0-51.2-21.504-51.2-48S278.912 416 307.2 416h217.6c28.288 0 51.2 21.504 51.2 48s-22.912 48-51.2 48H307.2z m0-320c-28.288 0-51.2-21.504-51.2-48S278.912 96 307.2 96h345.6c28.288 0 51.2 21.504 51.2 48s-22.912 48-51.2 48H307.2z m0 160c-28.288 0-51.2-21.504-51.2-48S278.912 256 307.2 256h89.6c28.288 0 51.2 21.504 51.2 48s-22.912 48-51.2 48H307.2z m412.8 224a48 48 0 0 1 0 96h-416a48 48 0 0 1 0-96h416z"  horiz-adv-x="1024" />

    
    <glyph glyph-name="warning" unicode="&#59126;" d="M470.4864 808.096l-464-800A48 48 0 0 1 48.0224-64h928a48 48 0 0 1 41.536 72.096l-464 800a48 48 0 0 1-83.072 0zM512.0224 688.3199999999999L892.6944 32H131.3504L512.0224 688.3199999999999zM512.0224 544a48 48 0 0 0 48-48v-224a48 48 0 0 0-96 0v224A48 48 0 0 0 512.0224 544z m-64-416c0 35.52 28.64 64 64 64 35.328 0 64-28.48 64-64 0-35.2-28.672-64-64-64-35.36 0-64 28.8-64 64z"  horiz-adv-x="1024" />

    
    <glyph glyph-name="locked-normal-fill" unicode="&#59127;" d="M512 896c141.184 0 256-114.816 256-256v-128h64c38.304 0 64-32 64-64v-512c0-32-25.056-64-64-64H192c-39.264 0-64 32-64 64V448c0 32 25.6 64 64 64h64V640c0 141.184 114.816 256 256 256z m0-96c-94.112 0-160-80-160-160v-128h320V640c0 80-65.888 160-160 160z"  horiz-adv-x="1024" />

    
    <glyph glyph-name="text" unicode="&#59128;" d="M128 832h768a64 64 0 0 0 64-64v-768a64 64 0 0 0-64-64H128a64 64 0 0 0-64 64V768a64 64 0 0 0 64 64z m32-96v-704h704V736H160z m592-64a48 48 0 0 0 0-96h-192v-432a48 48 0 0 0-96 0V576h-192a48 48 0 0 0 0 96h480z"  horiz-adv-x="1024" />

    
    <glyph glyph-name="align-down" unicode="&#59129;" d="M0-80A48 48 0 0 0 48-32h928a48 48 0 0 0 0-96h-928A48 48 0 0 0 0-80zM576 384a64 64 0 0 0 64 64h128a64 64 0 0 0 64-64v-224a64 64 0 0 0-64-64h-128a64 64 0 0 0-64 64v224zM192 768a64 64 0 0 0 64 64h128a64 64 0 0 0 64-64v-608a64 64 0 0 0-64-64H256a64 64 0 0 0-64 64V768z"  horiz-adv-x="1024" />

    
    <glyph glyph-name="download" unicode="&#59130;" d="M160-128c-35.296 0-64 28.8-64 64V608c0 35.2 28.704 64 64 64h176c26.528 0 48-21.44 48-48s-21.472-48-48-48H192v-608h640V576h-144a48 48 0 1 0 0 96H864c35.296 0 64-28.8 64-64v-672c0-35.2-28.704-64-64-64H160z m560 496c0-13.12-5.376-25.28-14.048-33.92l-160-160a48 48 0 0 0-67.872 0l-160 160a48 48 0 1 0 67.872 67.84l78.048-78.08V848a48 48 0 1 0 96 0v-524.16l78.08 78.08a48 48 0 0 0 81.92-33.92z"  horiz-adv-x="1024" />

    
    <glyph glyph-name="like" unicode="&#59131;" d="M736 768c105.888 0 192-86.112 192-192 0-282.848-301.92-492.544-416-561.6C397.92 83.45600000000002 96 293.15200000000004 96 576c0 105.888 86.112 192 192 192 58.176 0 112.608-26.048 149.344-71.488a95.968 95.968 0 0 1 149.312 0A191.264 191.264 0 0 0 736 768z m0 96a287.264 287.264 0 0 1-224-107.136A288 288 0 0 1 0 576c0-384 448-640 512-672 64 32 512 288 512 672a288 288 0 0 1-288 288z"  horiz-adv-x="1024" />

    
    <glyph glyph-name="information" unicode="&#59132;" d="M0 384C0 666.24 229.696 896 512 896s512-229.76 512-512-229.696-512-512-512S0 101.75999999999999 0 384z m96 0c0-229.44 186.592-416 416-416 229.376 0 416 186.56 416 416S741.376 800 512 800C282.592 800 96 613.44 96 384z m416 64a48 48 0 0 0 48-48v-224a48 48 0 0 0-96 0v224A48 48 0 0 0 512 448z m-64 128c0 35.52 28.64 64 64 64 35.328 0 64-28.48 64-64 0-35.2-28.672-64-64-64-35.36 0-64 28.8-64 64z"  horiz-adv-x="1024" />

    
    <glyph glyph-name="underline" unicode="&#59133;" d="M848 32a48 48 0 0 0 0-96h-672a48 48 0 0 0 0 96h672z m-64 800A48 48 0 0 0 832 784V448c0-176.736-143.264-320-320-320S192 271.264 192 448V784a48 48 0 0 0 96 0V448a224 224 0 0 1 448 0V784A48 48 0 0 0 784 832z"  horiz-adv-x="1024" />

    
    <glyph glyph-name="file-selected" unicode="&#59134;" d="M160 0V800h640v-368a48 48 0 0 1 96 0V832c0 34.368-27.744 64-64 64H128C92.768 896 64 867.712 64 832v-864c0-36.064 27.968-64 64-64h272a48 48 0 0 1 0 96H160z m544 384a256 256 0 1 0 0-512 256 256 0 0 0 0 512z m0-80a176 176 0 1 1 0-352 176 176 0 0 1 0 352z m66.112-85.44a40 40 0 1 0 59.776-53.12l-128-144a40 40 0 0 0-61.12 1.6l-64 80a40 40 0 0 0 62.464 49.92l34.368-42.944zM496 512a48 48 0 0 0 0-96h-224a48 48 0 0 0 0 96h224z m192 160a48 48 0 0 0 0-96h-416a48 48 0 0 0 0 96h416z"  horiz-adv-x="1024" />

    
    <glyph glyph-name="show" unicode="&#59136;" d="M0.32 380L0 384l0.32 4C17.536 594.528 277.664 768 512 768s494.464-173.472 511.68-380L1024 384l-0.32-4C1006.464 173.47199999999998 746.336 0 512 0S17.536 173.47199999999998 0.32 380zM512 96c187.84 0 399.776 140.224 415.68 288-15.904 147.776-227.84 288-415.68 288S112.224 531.7760000000001 96.32 384c15.904-147.776 227.84-288 415.68-288z m0 128a160 160 0 0 1 159.936 160A160 160 0 1 1 512 224z m0 96a64 64 0 1 0 0 128 64 64 0 0 0 0-128z"  horiz-adv-x="1024" />

    
    <glyph glyph-name="editor" unicode="&#59137;" d="M747.167533 884.863367A38.271976 38.271976 0 0 1 719.99955 895.99936c-9.823994 0-19.647988-3.647998-27.135983-11.135993L0 191.99980000000005v-319.9998h319.9998l692.863567 692.863567c7.487995 7.487995 11.135993 17.311989 11.135993 27.135983 0 9.855994-3.647998 19.647988-11.135993 27.167983L747.167533 884.863367zM145.951909 209.95178899999996L590.079631 654.079511l191.99988-191.99988-444.127722-444.127722-191.99988 191.99988zM95.99994 124.12784199999999L252.127842-32.00005999999996H95.99994v156.127902z m753.951529 405.823747l-191.99988 191.99988L719.99955 783.99943l191.99988-191.99988-62.047961-62.047961z"  horiz-adv-x="1024" />

    
    <glyph glyph-name="file-abnormal" unicode="&#59138;" d="M160 0V800h640v-368a48 48 0 0 1 96 0V832c0 34.368-27.744 64-64 64H128C92.768 896 64 867.712 64 832v-864c0-36.064 27.968-64 64-64h272a48 48 0 0 1 0 96H160z m544 384a256 256 0 1 0 0-512 256 256 0 0 0 0 512z m0-80a176 176 0 1 1 0-352 176 176 0 0 1 0 352z m0-136c22.08 0 40-17.92 40-40v-112a40 40 0 0 0-80 0V128c0 22.08 17.92 40 40 40z m0 104a40 40 0 1 0 0-80 40 40 0 0 0 0 80zM496 512a48 48 0 0 0 0-96h-224a48 48 0 0 0 0 96h224z m192 160a48 48 0 0 0 0-96h-416a48 48 0 0 0 0 96h416z"  horiz-adv-x="1024" />

    
    <glyph glyph-name="textalign-right" unicode="&#59139;" d="M896 128a64 64 0 1 0 0-128H320a64 64 0 1 0 0 128h576z m0 320a64 64 0 1 0 0-128H512a64 64 0 1 0 0 128h384z m0 320a64 64 0 1 0 0-128H128a64 64 0 1 0 0 128h768z"  horiz-adv-x="1024" />

    
    <glyph glyph-name="square-dotted" unicode="&#59140;" d="M112 128A48 48 0 0 0 160 80V32h48a48 48 0 0 0 47.776-43.392L256-16A48 48 0 0 0 208-64h-96A48 48 0 0 0 64-16v96A48 48 0 0 0 112 128z m448-96a48 48 0 0 0 0-96h-96a48 48 0 0 0 0 96z m256-96a48 48 0 0 0 0 96H864v48a48 48 0 0 0 43.392 47.776L912 128a48 48 0 0 0 48-48v-96a48 48 0 0 0-48-48z m-704 544A48 48 0 0 0 160 432v-96a48 48 0 0 0-96 0v96A48 48 0 0 0 112 480z m800 0a48 48 0 0 0 48-48v-96a48 48 0 0 0-96 0v96a48 48 0 0 0 48 48zM208 832a48 48 0 0 0 0-96H160v-48a48 48 0 0 0-43.392-47.776L112 640A48 48 0 0 0 64 688v96A48 48 0 0 0 112 832z m704 0A48 48 0 0 0 960 784v-96a48 48 0 0 0-96 0V736h-48a48 48 0 0 0-47.776 43.392L768 784A48 48 0 0 0 816 832z m-352 0a48 48 0 0 0 0-96h-96a48 48 0 0 0 0 96z"  horiz-adv-x="1024" />

    
    <glyph glyph-name="backward" unicode="&#59141;" d="M128 832a64 64 0 1 1 0-128h336v-604.16l-206.08 206.08a48 48 0 1 1-67.872-67.84l288-288a48 48 0 0 1 67.872 0l288 288a48 48 0 1 1-67.872 67.84L560 99.84000000000003V704H896a64 64 0 1 1 0 128H128z"  horiz-adv-x="1024" />

    
    <glyph glyph-name="selected" unicode="&#59142;" d="M367.904 31.840000000000032c-12.32 0-24.576 4.8-33.952 14.08L77.76 302.11199999999997c-9.92 9.92-14.272 23.072-13.728 35.872 0.48 11.52 4.8 23.04 13.728 32.032a48 48 0 0 0 32.064 13.76c12.896 0.32 25.952-3.84 35.84-13.76l222.24-222.24L878.304 722.24c9.888 9.92 22.944 14.08 35.904 13.76 11.616-0.64 23.136-4.8 32.032-13.76 8.896-8.96 13.248-20.48 13.728-32 0.512-12.832-3.84-25.952-13.728-35.904L401.92 45.91999999999996a48.32 48.32 0 0 0-33.984-14.08z"  horiz-adv-x="1024" />

    
    <glyph glyph-name="editor-square" unicode="&#59143;" d="M1012.864 692.864L480 160H288v192L820.864 884.864C828.352 892.352 838.176 896 848 896c9.824 0 19.648-3.648 27.168-11.136l137.696-137.696c7.488-7.52 11.136-17.312 11.136-27.168 0-9.824-3.648-19.648-11.136-27.136zM848 784L384 320v-64h64L912 720l-64 64zM496 736H96v-768h768V368a48 48 0 0 0 96 0V-64a64 64 0 0 0-64-64H64a64 64 0 0 0-64 64V768a64 64 0 0 0 64 64h432a48 48 0 1 0 0-96z"  horiz-adv-x="1024" />

    
    <glyph glyph-name="selected-circle" unicode="&#59144;" d="M512-128C229.248-128 0 101.12 0 384S229.248 896 512 896s512-229.12 512-512-229.248-512-512-512z m0 928C282.624 800 96 613.44 96 384s186.624-416 416-416 416 186.56 416 416S741.376 800 512 800z m-14.048-593.92c-9.376-9.28-21.664-14.08-33.952-14.08-12.288 0-24.544 4.8-33.92 14.08l-160 160a47.552 47.552 0 0 0-13.696 35.84c0.48 11.52 4.8 23.04 13.696 32 8.864 8.96 20.384 13.12 32.032 13.76 12.896 0.32 25.952-3.84 35.84-13.76l126.048-126.08 222.08 222.08c9.856 9.92 22.912 14.08 35.84 13.76 11.616-0.64 23.136-4.8 32.032-13.76 8.864-8.96 13.216-20.48 13.696-32 0.512-12.8-3.84-25.92-13.696-35.84l-256-256z"  horiz-adv-x="1024" />

    
    <glyph glyph-name="key" unicode="&#59145;" d="M608 896c145.216 0 256-115.2 256-256 0-144-112-240-192-240v-384c0-28.096-21.536-41.024-32-48-48-32-159.584-96-224-96-38.816 0-64 32-64 64V400C272 400 160 512 160 640c0 145.056 110.816 256 256 256h192z m0-96h-192C319.2 800 256 725.312 256 640c0-85.344 63.2-160 160-160 16 0 32-6.4 32-32v-464l128 64V448c0 25.6 16 32 32 32 96.8 0 160 74.656 160 160 0 85.312-63.2 160-160 160z m-16-160h-160c-21.6 0-48 17.664-48 48S410.4 736 432 736h160c21.6 0 48-18.656 48-48S613.6 640 592 640z"  horiz-adv-x="1024" />

    
    <glyph glyph-name="chart-dashboard" unicode="&#59146;" d="M512.00064 832c282.784 0 512-229.216 512-512a510.08 510.08 0 0 0-124.096-334.208 48 48 0 0 0-72.704 62.72A414.112 414.112 0 0 1 928.00064 320c0 229.76-186.24 416-416 416S96.00064 549.76 96.00064 320c0-102.336 37.024-198.816 103.136-274.176a48 48 0 1 0-72.16-63.328A510.144 510.144 0 0 0 0.00064 320C0.00064 602.784 229.21664 832 512.00064 832z m0-416a16 16 0 0 0 15.744-13.12l0.16-1.952h0.096l47.232-359.072a64 64 0 1 0-126.496-0.032L496.00064 400.896A16.064 16.064 0 0 0 512.00064 416z m0 256c194.4 0 352-157.6 352-352a48 48 0 0 0-96 0 256 256 0 1 1-512 0 48 48 0 0 0-96 0C160.00064 514.4 317.60064 672 512.00064 672z"  horiz-adv-x="1024" />

    
    <glyph glyph-name="photo" unicode="&#59147;" d="M960-64H64a64 64 0 0 0-64 64V640a64 64 0 0 0 64 64h160l128 128h320l128-128h160a64 64 0 0 0 64-64v-640a64 64 0 0 0-64-64zM928 608h-167.776l-128 128h-240.448l-128-128H96v-576h832V608z m-416-32a224 224 0 1 0 0-448 224 224 0 0 0 0 448z m0-352c70.592 0 128 57.408 128 128s-57.408 128-128 128-128-57.408-128-128 57.408-128 128-128z"  horiz-adv-x="1024" />

    
    <glyph glyph-name="hidden" unicode="&#59148;" d="M941.29024 571.5840000000001c46.464-54.72 76.864-117.472 82.4-183.584L1024.01024 384l-0.32-4C1006.47424 173.47199999999998 746.34624 0 512.01024 0c-89.76 0-183.296 25.44-265.536 68.48l89.152 64.512C392.33024 109.69600000000003 453.32224 96 512.01024 96c187.84 0 399.776 140.224 415.68 288-4.928 45.696-28.608 90.688-64.512 131.04l78.08 56.544z m6.56 187.296a48 48 0 1 0 56.32-77.76l-928-672a48 48 0 0 0-56.32 77.76l98.976 71.616c-66.56 62.784-111.68 139.52-118.496 221.504L0.01024 384l0.32 4C17.54624 594.528 277.67424 768 512.01024 768c108.128 0 221.76-36.928 314.464-97.024zM512.01024 672c-187.84 0-399.776-140.224-415.68-288 6.496-60.16 45.472-119.136 102.112-167.84l161.792 117.184a160 160 0 0 0 247.232 179.04l134.176 97.152C671.37024 648.064 589.64224 672 512.01024 672z m159.776-295.616a160 160 0 0 0-202.496-146.624l202.496 146.624zM512.01024 448a64 64 0 0 1-62.432-49.984l68.576 49.696A64.736 64.736 0 0 1 512.01024 448z"  horiz-adv-x="1024" />

    
    <glyph glyph-name="mail" unicode="&#59150;" d="M64 800a64 64 0 0 1-64-64v-704a64 64 0 0 1 64-64h896a64 64 0 0 1 64 64V736a64 64 0 0 1-64 64H64z m864-96v-25.12L512 329.82399999999996 96 678.88V704h832zM96 64V553.568l374.848-314.56a64 64 0 0 1 82.304 0L928 553.568V64H96z"  horiz-adv-x="1024" />

    
    <glyph glyph-name="right-arrow" unicode="&#59151;" d="M480 0c0 13.248 5.44 25.248 14.08 33.92l302.08 302.08H112a48 48 0 1 0 0 96h684.16l-302.08 302.048a48 48 0 1 0 67.84 67.872l384-384a48 48 0 0 0 0-67.872l-384-384A48 48 0 0 0 480 0z"  horiz-adv-x="1024" />

    
    <glyph glyph-name="up-arrow" unicode="&#59152;" d="M128 352a47.968 47.968 0 0 0-33.952 81.92l384 384a48 48 0 0 0 67.872 0l384-384a48 48 0 1 0-67.872-67.84L560 668.16V-16a48 48 0 1 0-96 0V668.16l-302.08-302.08A48 48 0 0 0 128 352z"  horiz-adv-x="1024" />

    
    <glyph glyph-name="refresh" unicode="&#59153;" d="M975.998475 863.99845A47.999925 47.999925 0 0 1 927.99855 815.998525v-133.439791A509.759204 509.759204 0 0 1 511.9992 895.9984C229.695641 895.9984 0 666.238759 0 383.9992s229.695641-511.9992 511.9992-511.9992c208.095675 0 393.951384 124.159806 473.40726 316.799505 5.055992 12.159981 4.671993 25.279961-0.032 36.479943a47.743925 47.743925 0 0 1-26.015959 26.239959 50.111922 50.111922 0 0 1-36.703943 0c-11.327982-4.799993-20.895967-14.079978-25.983959-26.239959A415.135351 415.135351 0 0 0 511.9992-32.00014999999996C282.623558-32.00014999999996 95.99985 154.55955900000004 95.99985 383.9992S282.623558 799.99855 511.9992 799.99855c143.551776 0 274.271571-72.639887 350.367453-191.9997H719.998875a47.999925 47.999925 0 1 1 0-95.99985h255.9996a47.999925 47.999925 0 0 1 47.999925 47.999925v255.9996A47.999925 47.999925 0 0 1 975.998475 863.99845z"  horiz-adv-x="1024" />

    
    <glyph glyph-name="user" unicode="&#59154;" d="M512 896c125.44 0 224-105.6 224-240 0-115.168-27.584-210.592-80.256-270.048 16.384-35.84 39.872-44.928 50.176-48.512C839.648 290.91200000000003 960 236.22400000000005 960 64c-4.48-46.56-35.648-192-450.24-192C407.232-128 64-109.37599999999998 64 62.847999999999956c0 172.192 120.352 228.064 254.08 269.952 7.264 3.776 32.256 13.76 48.512 55.04C315.04 447.36 288 542.0160000000001 288 656 288 790.4 386.56 896 512 896z m-68.064-562.4l-2.016-4.064c-21.792-41.728-55.488-69.664-97.088-85.184C211.104 197.82399999999996 160 165.24800000000005 160 62.847999999999956c0-51.2 180.384-97.76 349.76-97.76 169.408 0 354.24 46.56 354.24 97.76 0 102.4-55.552 134.976-189.28 186.176-41.408 15.424-72.992 43.168-94.784 84.544A183.04 183.04 0 0 0 512 320c-24.32 0-47.008 5.248-68.064 13.6zM512 800c-72.544 0-128-62.592-128-144.448 0-105.92 25.6-187.776 72.544-221.504 34.112-24.064 76.8-24.064 110.912 0C614.4 467.776 640 549.6320000000001 640 655.552 640 737.408 584.544 800 512 800z"  horiz-adv-x="1024" />

    
    <glyph glyph-name="selected-square" unicode="&#59155;" d="M128 832C89.44 832 64 800 64 768v-768c0-32 25.248-64 64-64h768c38.912 0 64 32 64 64V768c0 32-25.92 64-64 64H128z m736-800H160V736h704v-704z m-432.096 159.84c-12.32 0-24.576 4.8-33.952 14.08L269.76 334.11199999999997c-9.92 9.92-14.272 23.072-13.728 35.872 0.48 11.52 4.8 23.04 13.728 32.032a48 48 0 0 0 32.064 13.76c12.896 0.32 25.952-3.84 35.84-13.76l94.24-94.24 254.4 254.432c9.888 9.92 22.944 14.08 35.904 13.76 11.616-0.64 23.136-4.8 32.032-13.76 8.896-8.96 13.248-20.48 13.728-32 0.512-12.832-3.84-25.952-13.728-35.904l-288.352-288.384a48.32 48.32 0 0 0-33.984-14.08z"  horiz-adv-x="1024" />

    
    <glyph glyph-name="line" unicode="&#59156;" d="M173.248-45.24800000000005l768 768a64 64 0 0 1-90.496 90.496l-768-768a64 64 0 0 1 90.496-90.496z"  horiz-adv-x="1024" />

    
    <glyph glyph-name="chart-line" unicode="&#59158;" d="M112 832A48 48 0 0 0 160 784v-655.072l232.736 330.688a48 48 0 0 0 63.264 13.952l3.904-2.496 181.696-129.792 261.248 435.424a48 48 0 0 0 82.304-49.408l-288-480a48 48 0 0 0-69.056-14.368l-184.64 131.904L209.152 32H912a48 48 0 0 0 47.776-43.392L960-16a48 48 0 0 0-48-48h-800A48 48 0 0 0 64-16v800A48 48 0 0 0 112 832z"  horiz-adv-x="1024" />

    
    <glyph glyph-name="question" unicode="&#59159;" d="M0 384C0 666.24 229.696 896 512 896s512-229.76 512-512-229.696-512-512-512S0 101.75999999999999 0 384z m96 0c0-229.44 186.592-416 416-416 229.376 0 416 186.56 416 416S741.376 800 512 800C282.592 800 96 613.44 96 384z m416-192c35.328 0 64-28.48 64-64 0-35.2-28.672-64-64-64-35.36 0-64 28.8-64 64 0 35.52 28.64 64 64 64z m-0.896 480C623.68 672 720 590.976 720 491.264c0-55.2-39.84-104.576-89.984-136-17.024-10.688-17.056-10.72-22.72-14.688-33.12-23.072-48-18.656-48-71.776 0-24.736-21.568-44.8-48.192-44.8-26.592 0-48.16 20.064-48.16 44.8 0 82.56 30.08 104.096 86.528 143.456 7.616 5.312 7.68 5.376 26.688 17.28 21.248 13.312 47.488 34.336 47.488 61.728 0 50.432-47.488 91.136-112.544 91.136-65.024 0-110.752-40.704-110.752-91.136 0-24.736-21.568-44.8-48.16-44.8-26.624 0-48.192 20.064-48.192 44.8C304 590.976 398.56 672 511.104 672z"  horiz-adv-x="1024" />

    
    <glyph glyph-name="circle" unicode="&#59160;" d="M512-96c265.088 0 480 214.912 480 480 0 265.088-214.912 480-480 480C246.912 864 32 649.088 32 384c0-265.088 214.912-480 480-480z m0 96C299.936 0 128 171.93600000000004 128 384S299.936 768 512 768s384-171.936 384-384-171.936-384-384-384z"  horiz-adv-x="1024" />

    
    <glyph glyph-name="folder-closed" unicode="&#59161;" d="M480 736l-96 96H64a64 64 0 0 1-64-64v-768a64 64 0 0 1 64-64h896a64 64 0 0 1 64 64V672a64 64 0 0 1-64 64H480z m-135.776 0l96-96H928v-64H96V736h248.224zM96 32V480h832v-448H96z"  horiz-adv-x="1024" />

    
    <glyph glyph-name="front" unicode="&#59163;" d="M112-64a48 48 0 0 0 0 96h352v160h-352a48 48 0 0 0 0 96h352V668.16l-206.08-206.08a48 48 0 1 0-67.872 67.84l288 288a48 48 0 0 0 67.872 0l288-288a48 48 0 1 0-67.872-67.84L560 668.16V288h352a48 48 0 0 0 0-96h-352v-160h352a48 48 0 0 0 0-96h-800z"  horiz-adv-x="1024" />

    
    <glyph glyph-name="redo" unicode="&#59165;" d="M784-32H384C207.264-32 64 111.26400000000001 64 288c0 173.76 138.464 315.136 311.04 319.872L384 608h412.16l-142.08 142.048a48 48 0 1 0 67.84 67.872l224-224a48 48 0 0 0 0-67.872l-224-224a48 48 0 0 0-67.84 67.872L796.16 512H384a224 224 0 0 1 0-448h400a48 48 0 0 0 0-96z"  horiz-adv-x="1024" />

    
    <glyph glyph-name="align-left" unicode="&#59168;" d="M48 896A48 48 0 0 0 96 848v-928a48 48 0 0 0-96 0v928A48 48 0 0 0 48 896zM512 320a64 64 0 0 0 64-64v-128a64 64 0 0 0-64-64H288a64 64 0 0 0-64 64v128a64 64 0 0 0 64 64h224zM896 704a64 64 0 0 0 64-64v-128a64 64 0 0 0-64-64H288a64 64 0 0 0-64 64V640a64 64 0 0 0 64 64h608z"  horiz-adv-x="1024" />

    
    <glyph glyph-name="user-groups" unicode="&#59169;" d="M608 768c107.52 0 192-92.416 192-210.016 0-102.464-24.48-187.104-71.104-238.88 14.624-31.04 36.416-36.672 45.312-39.84C888.832 238.55999999999995 992 190.72000000000003 992 40c-3.84-40.736-30.56-168-385.92-168C518.208-128 224-111.67999999999995 224 38.976c0 150.72 103.168 199.584 217.792 236.224 6.24 3.328 27.68 12.032 41.6 48.192C439.136 375.52 416 458.336 416 557.9839999999999 416 675.648 500.48 768 608 768z m43.52-497.344a148.8 148.8 0 0 0-43.52-6.656c-12.192 0-23.936 1.6-35.2 4.352l-8.352 2.304-2.944-6.24c-25.024-49.28-73.184-73.984-81.44-76.8-69.728-29.344-160.064-36.64-160.064-151.552C320 0.4479999999999791 480.064-32 608-32s288 32.448 288 68.064c0 114.88-90.336 122.208-160.064 151.552-8.256 2.816-56.416 27.52-81.44 76.8l-2.976 6.24zM416 896c57.408 0 108.256-26.336 143.168-68.8a244.544 244.544 0 0 1-95.36-41.76A86.08 86.08 0 0 1 416 800c-52.48 0-96-47.584-96-114.016 0-68.384 12.64-121.76 32.544-155.552 1.92-47.904 8.96-92.352 21.024-132.16l-1.12 0.384-2.944-6.24c-25.024-49.28-73.184-73.984-81.44-76.8C218.336 286.27200000000005 128 278.976 128 164.06399999999996c0-11.488 16.64-22.656 43.52-32.48-7.68-27.424-11.52-58.08-11.52-92.608v-2.88c-71.136 24.384-128 64.64-128 130.88 0 150.72 103.168 199.584 217.792 236.224 6.24 3.328 27.68 12.032 41.6 48.192C247.136 503.52 224 586.336 224 686.016 224 803.5840000000001 308.48 896 416 896z m192-224c-52.48 0-96-47.584-96-114.016 0-74.336 14.912-130.912 37.888-163.904 8-11.008 17.152-19.328 26.976-24.96l3.392-1.824a59.2 59.2 0 0 1 54.912-0.288c16.576 8.192 31.808 24.224 43.104 48.48 15.936 33.76 25.728 82.304 25.728 142.528C704 624.384 660.48 672 608 672z"  horiz-adv-x="1024" />

    
    <glyph glyph-name="tab" unicode="&#59172;" d="M288 768a64 64 0 0 0 64-64v-32a64 64 0 0 1 64-64h512a64 64 0 0 0 64-64v-480a64 64 0 0 0-64-64H96a64 64 0 0 0-64 64V704a64 64 0 0 0 64 64h192zM256 672H128v-576h768V512H416a160 160 0 0 0-160 160z m352 96a64 64 0 1 0 0-128h-160a64 64 0 1 0 0 128h160z m320 0a64 64 0 1 0 0-128h-160a64 64 0 1 0 0 128h160z"  horiz-adv-x="1024" />

    
    <glyph glyph-name="left-arrow" unicode="&#59173;" d="M544 0a47.968 47.968 0 0 0-81.92-33.952l-384 384a48 48 0 0 0 0 67.872l384 384a48 48 0 1 0 67.84-67.872L227.84 432H912a48 48 0 1 0 0-96H227.84l302.08-302.08c8.64-8.672 14.08-20.672 14.08-33.92z"  horiz-adv-x="1024" />

    
    <glyph glyph-name="iframe" unicode="&#59174;" d="M896 832a64 64 0 0 0 64-64v-768a64 64 0 0 0-64-64H128a64 64 0 0 0-64 64V768a64 64 0 0 0 64 64h768z m-32-96H160v-704h704V736z m-334.656-246.816a32 32 0 0 0 61.312-18.368l-96-320a32 32 0 0 0-61.312 18.368z m141.184-9.184c7.936 0 15.04-3.136 20.576-8.192v0.096l130.912-129.152a31.04 31.04 0 0 0 0-45.472l-130.912-129.152v0.064a30.272 30.272 0 0 0-20.576-8.192 30.688 30.688 0 0 0-30.528 30.848 30.72 30.72 0 0 0 9.984 22.688v0.064L756.288 320l-106.304 106.464a30.752 30.752 0 0 0-9.984 22.688c0 17.024 13.632 30.848 30.528 30.848z m-317.056 0c16.896 0 30.528-13.824 30.528-30.848 0-8.992-3.84-17.056-9.984-22.688L267.712 320l106.304-106.4v-0.064a30.72 30.72 0 0 0 9.984-22.688 30.688 30.688 0 0 0-30.528-30.848 30.272 30.272 0 0 0-20.576 8.192v-0.064L201.984 297.28a31.04 31.04 0 0 0 0 45.472l130.912 129.152v-0.096a30.272 30.272 0 0 0 20.576 8.192zM784 672a48 48 0 0 0 0-96h-544a48 48 0 0 0 0 96h544z"  horiz-adv-x="1024" />

    
    <glyph glyph-name="italics" unicode="&#59175;" d="M720 832a48 48 0 0 0 0-96h-85.344l-156.448-704H560a48 48 0 0 0 0-96h-256a48 48 0 0 0 0 96h78.208l156.416 704H464a48 48 0 0 0 0 96h256z"  horiz-adv-x="1024" />

    
    <glyph glyph-name="align-right" unicode="&#59176;" d="M976 896A48 48 0 0 0 1024 848v-928a48 48 0 0 0-96 0v928A48 48 0 0 0 976 896zM512 320h224a64 64 0 0 0 64-64v-128a64 64 0 0 0-64-64h-224a64 64 0 0 0-64 64v128a64 64 0 0 0 64 64zM128 704h608a64 64 0 0 0 64-64v-128a64 64 0 0 0-64-64H128a64 64 0 0 0-64 64V640a64 64 0 0 0 64 64z"  horiz-adv-x="1024" />

    
    <glyph glyph-name="star" unicode="&#59177;" d="M512.01376 45.535999999999945l-263.616-135.936c-35.744-18.432-77.504 11.328-70.688 50.368l50.336 287.968L14.76576 451.84c-28.896 27.616-12.96 75.776 27.008 81.472l294.72 42.016 131.84 262.016c17.856 35.52 69.504 35.52 87.36 0l131.84-262.016 294.72-42.016c39.968-5.696 55.904-53.856 27.008-81.472l-213.28-203.936 50.336-288c6.816-39.008-34.944-68.768-70.688-50.336L512.01376 45.535999999999945z m-22.656 96.288a49.536 49.536 0 0 0 45.312 0l198.944-102.592-37.984 217.28a47.232 47.232 0 0 0 14.016 42.304l160.96 153.92-222.432 31.68a48.64 48.64 0 0 0-36.704 26.144L512.01376 708.256l-99.456-197.696a48.64 48.64 0 0 0-36.704-26.144l-222.4-31.68 160.96-153.92c11.456-10.976 16.704-26.784 13.984-42.304l-37.984-217.28 198.944 102.592z"  horiz-adv-x="1024" />

    
    <glyph glyph-name="back" unicode="&#59179;" d="M112 832a48 48 0 0 1 0-96h352v-160h-352a48 48 0 0 1 0-96h352v-380.16l-206.08 206.08a48 48 0 1 1-67.872-67.84l288-288a48 48 0 0 1 67.872 0l288 288a48 48 0 1 1-67.872 67.84L560 99.84000000000003V480h352a48 48 0 0 1 0 96h-352V736h352a48 48 0 0 1 0 96h-800z"  horiz-adv-x="1024" />

    
    <glyph glyph-name="add-small" unicode="&#59182;" d="M512 608a48 48 0 0 0 48-48v-128h128a48 48 0 0 0 0-96h-128v-128a48 48 0 0 0-96 0v128h-128a48 48 0 0 0 0 96h128v128A48 48 0 0 0 512 608z"  horiz-adv-x="1024" />

    
    <glyph glyph-name="icon" unicode="&#59183;" d="M480 352v-208A208 208 0 1 0 272 352H480z m272 0a208 208 0 1 0-208-208V352h208zM384 256H272a112 112 0 1 1 112-112V256z m368 0H640v-112a112 112 0 1 1 112 112zM272 832A208 208 0 0 0 480 624V416H272a208 208 0 1 0 0 416z m480 0a208 208 0 1 0 0-416H544V624A208 208 0 0 0 752 832z m-480-96a112 112 0 0 1 0-224H384V624A112 112 0 0 1 272 736z m480 0A112 112 0 0 1 640 624V512h112a112 112 0 0 1 0 224z"  horiz-adv-x="1024" />

    
    <glyph glyph-name="chart-bar" unicode="&#59184;" d="M976-128h-928a48 48 0 1 0 0 96h928a48 48 0 1 0 0-96zM928 64h-128a64 64 0 0 0-64 64V640a64 64 0 0 0 64 64h128a64 64 0 0 0 64-64v-512a64 64 0 0 0-64-64zM896 608h-64v-448h64V608zM576 64h-128a64 64 0 0 0-64 64V832a64 64 0 0 0 64 64h128a64 64 0 0 0 64-64v-704a64 64 0 0 0-64-64zM544 800h-64v-640h64V800zM224 64H96a64 64 0 0 0-64 64V448a64 64 0 0 0 64 64h128a64 64 0 0 0 64-64v-320a64 64 0 0 0-64-64zM192 416H128v-256h64v256z"  horiz-adv-x="1024" />

    
    <glyph glyph-name="save" unicode="&#59039;" d="M544 704h96v-128h-96V704zM160 32V736h64v-224c0-32 24.832-64 64-64h448c37.76 0 64 32 64 64V736h64v-704H160zM704 736v-192H320V736h384zM128 832C89.024 832 64 800 64 768v-768c0-32 24.768-64 64-64h768c38.528 0 64 32 64 64V768c0 32-25.92 64-64 64H128z"  horiz-adv-x="1024" />

    
    <glyph glyph-name="help" unicode="&#59040;" d="M760.672 832c-107.488 0-197.952-29.824-248.672-80C461.28 802.176 370.816 832 263.328 832H64C26.24 832 0 801.152 0 768v-672c0-32.864 26.88-64 64-64h208c77.984 0 154.08-40.448 184.48-72.992 13.76-14.656 32.832-23.008 52.736-23.008h5.856c19.776 0 38.72 8.352 52.352 23.008C597.696-8.73599999999999 673.824 32 752 32H960c38.784 0 64 31.136 64 64V768c0 33.152-25.728 64-64 64h-199.328zM96 128V736h176c125.024 0 192-43.552 192-80V64c-52 30.752-110.72 64-192 64H96z m832 0h-176c-81.28 0-140-33.248-192-64V656c0 36.448 66.976 80 192 80H928v-608z"  horiz-adv-x="1024" />

    
    <glyph glyph-name="tag" unicode="&#59041;" d="M1005.265926 397.248156L498.738084-109.27968599999997a63.67998 63.67998 0 0 0-45.247986-18.751994 63.74398 63.74398 0 0 0-45.247986 18.751994L18.738234 280.224192a63.99998 63.99998 0 0 0 0 90.495972L525.266076 877.248006A63.99998 63.99998 0 0 0 570.514062 896H960.01794a63.99998 63.99998 0 0 0 63.99998-63.99998v-389.471878c0-16.991995-6.751998-33.27999-18.751994-45.279986z m-895.99972-71.775978l344.223892-344.255892 68.735979 68.735978L177.970184 394.176157l-68.703978-68.703979zM928.01795 800.00003H583.794058L245.842163 462.048136 590.098056 117.82424300000002 928.01795 455.776138V800.00003z m-191.99994-127.99996a63.99998 63.99998 0 1 0 0.032-127.96796A63.99998 63.99998 0 0 0 736.01801 672.00007z"  horiz-adv-x="1024" />

    
    <glyph glyph-name="chart-pie" unicode="&#59042;" d="M575.99766 447.99766V767.99636c0 42.207829-23.903903 63.99974-63.99974 63.99974h-31.99987C214.911127 831.9961 0 617.084973 0 351.99805000000003c0-265.086923 214.911127-479.99805 479.99805-479.99805 265.086923 0 479.99805 246.910997 479.99805 511.99792 0 39.679839-22.847907 63.99974-63.99974 63.99974H575.99766z m-95.99961 287.99883v-383.99844h383.99844c0-212.063138-171.935302-383.99844-383.99844-383.99844S95.99961 139.93491200000005 95.99961 351.99805000000003 267.934912 735.99649 479.99805 735.99649zM683.197225 894.971844c180.479267-27.487888 312.67073-172.3513 340.222617-351.134573 4.383982-31.583872-16.191934-63.839741-59.583758-63.839741H607.99753V831.356103c0 39.199841 24.383901 64.447738 56.54377 64.447738 3.487986 0 8.447966 0.799997 18.655925-0.831997z m21.663912-109.759554v-209.27915h211.263141c-31.519872 99.519596-110.81555 178.015277-211.263141 209.27915z"  horiz-adv-x="1024" />

    
    <glyph glyph-name="undo" unicode="&#59043;" d="M240-32a48 48 0 0 0 0 96H640a224 224 0 0 1 0 448H227.84l142.08-142.08a48 48 0 1 0-67.84-67.872l-224 224a48 48 0 0 0 0 67.872l224 224a48 48 0 1 0 67.84-67.872L227.84 608H640l8.96-0.128C821.536 603.136 960 461.76 960 288c0-176.736-143.264-320-320-320H240z"  horiz-adv-x="1024" />

    
    <glyph glyph-name="print" unicode="&#59044;" d="M928 640h-96V832H192v-192H96a64 64 0 0 1-64-64v-416a64 64 0 0 1 64-64h96v-160h640v160h96a64 64 0 0 1 64 64V576a64 64 0 0 1-64 64zM288 32v192h448v-192H288z m544 160v128H192v-128H128V544h768v-352h-64z m0 192h-96v96h96v-96zM288 736h448v-96H288V736z"  horiz-adv-x="1024" />

    
    <glyph glyph-name="archives" unicode="&#59045;" d="M735.392 800H288.608c-20.512 0-39.744-9.792-51.776-26.368L0 480v-448a64 64 0 0 1 64-64h896a64 64 0 0 1 64 64V480l-236.832 293.632A63.936 63.936 0 0 1 735.392 800z m-16.288-96l162.912-192H752c-12.736 0-24.928-5.056-33.952-14.048L604.128 384h-184.256L305.92 497.952A47.968 47.968 0 0 1 272 512H141.984l162.912 192h414.208zM96 64V416h156.128l113.92-113.92A48 48 0 0 1 400 288h224c12.736 0 24.928 5.056 33.92 14.08L771.872 416H928v-352H96z"  horiz-adv-x="1024" />

    
    <glyph glyph-name="unlocked-small-fill" unicode="&#59046;" d="M512 703.84a192 192 0 0 0 192-192 36 36 0 0 0-72 0 120 120 0 0 1-240 0l-0.032-159.808L752 352a48 48 0 0 0 48-48v-384a48 48 0 0 0-48-48h-480A48 48 0 0 0 224-80v384A48 48 0 0 0 272 352l47.968 0.032 0.032 159.808a192 192 0 0 0 184.8 191.872z"  horiz-adv-x="1024" />

    
    <glyph glyph-name="menu-used" unicode="&#59047;" d="M420.576 352c32.832 0 59.424-26.592 59.424-59.424v-297.152A59.424 59.424 0 0 0 420.576-64H123.424A59.424 59.424 0 0 0 64-4.576000000000022v297.152C64 325.408 90.592 352 123.424 352h297.152z m480 0c32.832 0 59.424-26.592 59.424-59.424v-297.152A59.424 59.424 0 0 0 900.576-64h-297.152A59.424 59.424 0 0 0 544-4.576000000000022v297.152c0 32.832 26.592 59.424 59.424 59.424h297.152zM384 256H160v-224h224v224z m480 0h-224v-224h224v224zM420.576 832C453.408 832 480 805.408 480 772.576v-297.152A59.424 59.424 0 0 0 420.576 416H123.424A59.424 59.424 0 0 0 64 475.424V772.576C64 805.408 90.592 832 123.424 832h297.152z m480 0C933.408 832 960 805.408 960 772.576v-297.152A59.424 59.424 0 0 0 900.576 416h-297.152A59.424 59.424 0 0 0 544 475.424V772.576C544 805.408 570.592 832 603.424 832h297.152zM384 736H160v-224h224V736z m480 0h-224v-224h224V736z"  horiz-adv-x="1024" />

    
    <glyph glyph-name="menu-expansion" unicode="&#59048;" d="M912 832a48 48 0 0 0 0-96h-800a48 48 0 0 0 0 96h800z m-384-288a48 48 0 0 0 0-96h-416a48 48 0 0 0 0 96h416z m0-224a48 48 0 0 0 0-96h-416a48 48 0 0 0 0 96h416z m316.256 64.128l-158.336 159.488a48 48 0 0 0 68.16 67.616l192-193.408a48 48 0 0 0-0.128-67.776l-192-192a48 48 0 0 0-67.904 67.904l158.208 158.176zM912 32a48 48 0 0 0 0-96h-800a48 48 0 0 0 0 96h800z"  horiz-adv-x="1024" />

    
    <glyph glyph-name="locked-small-fill" unicode="&#59049;" d="M512 640c105.888 0 192-86.112 192-192v-96h48c28.704 0 48-24 48-48v-384c0-24-18.784-48-48-48h-480c-29.44 0-48 24-48 48v384c0 24 19.2 48 48 48H320v96c0 105.888 86.112 192 192 192z m0-72c-70.592 0-120-60-120-120v-96h240v96c0 60-49.408 120-120 120z"  horiz-adv-x="1024" />

    
    <glyph glyph-name="menu-closed" unicode="&#59050;" d="M912 32a48 48 0 0 0 0-96h-800a48 48 0 0 0 0 96h800zM337.824 611.488a48 48 0 0 0 0.256-67.872l-158.336-159.488 158.208-158.176a48 48 0 0 0-67.904-67.904l-192 192a48 48 0 0 0-0.128 67.776l192 193.408a48 48 0 0 0 67.904 0.256zM912 320a48 48 0 0 0 0-96h-416a48 48 0 0 0 0 96h416z m0 224a48 48 0 0 0 0-96h-416a48 48 0 0 0 0 96h416z m0 288a48 48 0 0 0 0-96h-800a48 48 0 0 0 0 96h800z"  horiz-adv-x="1024" />

    


  </font>
</defs>
</svg>
